<?xml version="1.0" encoding="utf-8"?>
<!-- Generator: Adobe Illustrator 26.1.0, SVG Export Plug-In . SVG Version: 6.00 Build 0)  -->
<svg version="1.1" id="Layer_1" xmlns="http://www.w3.org/2000/svg" xmlns:xlink="http://www.w3.org/1999/xlink" x="0px" y="0px"
	 viewBox="0 0 1535.5 1001.3" style="enable-background:new 0 0 1535.5 1001.3;" xml:space="preserve">
<style type="text/css">
	.st0{fill:#FFBF00;}
</style>
<g>
	<path class="st0" d="M1330.4,20.9h-94.8c-12.2,0-19.4,6-21.9,16.4l-94,348.8l-94.1-348.8c-2.5-10.5-9.7-16.4-21.9-16.4h-78.5
		c-14.6,0-21.1,7.5-17,20.8l25.6,85.8l-75.1,258.5L764.7,37.3c-2.5-10.5-9.7-16.4-21.9-16.4h-92c13,0,20.3,6.7,20.3,18.6V524
		c0,11.9-7.3,18.6-20.3,18.6h251.6c11.4,0,19.4-4.5,22.7-15.7l64.1-214l64,214c3.2,11.2,11.4,15.7,22.7,15.7h103.7
		c11.4,0,19.4-4.5,22.7-15.7l145-485.2C1351.4,28.3,1345,20.9,1330.4,20.9z M564.9,530.7L371.3,252v272c0,11.9-7.3,18.6-20.3,18.6
		h239.1C579.6,542.6,570.6,538.9,564.9,530.7z M322.7,20.9c10.5,0,19.4,3.7,25.1,11.9l193.7,278.8V39.5c0-11.9,7.3-18.6,20.3-18.6
		C561.7,20.9,322.7,20.9,322.7,20.9z"/>
</g>
<g>
	<path class="st0" d="M92.9,590v20.3c8.7-8.1,17.3-14.2,25.7-18.2c8.4-4,16.5-6.1,24.5-6.1c10.6,0,19.6,3.1,26.9,9.5
		c5.6,4.8,9.2,10.7,11.1,17.7c1.9,7,2.8,18.6,2.8,34.6l-0.2,67.7l0.3,34.1h-57l0.4-40.5l0.3-29.8l-0.1-45
		c-0.1-10.4-0.2-16.7-0.3-18.6s-0.5-3.8-1-5.3c-1.2-3.1-3.7-4.6-7.7-4.6c-3.6,0-7.6,1.4-11.9,4.1c-4.2,2.7-8.8,6.8-13.8,12.2
		l-0.1,5.9l-0.2,41.1l-0.2,31.5l0.3,42.9l0.1,6.3H35.5l0.3-57.3l0.3-37.8l-0.3-32.8l-0.3-31.7h57.5V590z"/>
	<path class="st0" d="M264.7,586.1c12,0,23.5,4.3,34.2,13c9.9,8,17.5,18.9,22.8,32.8c4.7,12.1,7,25.1,7,38.7
		c0,9.3-1.4,18.7-4.1,28.2c-2.7,9.4-6.5,17.8-11.1,25.1c-6.6,10.1-14.7,17.6-24.1,22.6c-7.8,4.2-15.9,6.3-24.4,6.3
		c-14.2,0-26.8-5.4-38.1-16.3c-8.8-8.3-15.5-19.1-20-32.2c-3.8-11.1-5.8-22.8-5.8-35.3c0-24.1,6.7-44.2,20.1-60.1
		C233.8,593.9,248.4,586.4,264.7,586.1z M261.4,595.4l-0.3,147.4c2.3,0.2,3.9,0.3,4.9,0.3c10.4,0,20.3-3.8,29.9-11.5
		c9.1-7.5,16-17.3,20.5-29.5c3.5-9.7,5.4-20.4,5.4-32.1c0-23.5-6.7-42.6-19.9-57.2c-10.7-11.8-22.5-17.7-35.1-17.7
		C265.6,595.1,263.8,595.2,261.4,595.4z"/>
	<path class="st0" d="M493.8,669.8c8.1-21.8,16-46.2,23.8-73c1.8-6.4,3.1-10.3,3.8-11.7c0.7-1.4,1.7-2.1,3-2.1
		c1.4,0,2.6,0.5,3.7,1.7c1,1.1,1.5,2.4,1.5,3.9c0,1.4-0.4,3.4-1.2,5.8c-0.8,2.5-3.5,10.6-8.3,24.2L506,659.2l-13,36.5l-10.6,30.5
		l-11.2,33.4l-42.4-95c-2.8,6.2-6.6,14.8-11.3,26.2L389,759.7l-20.9-52.4L352,667.5L338.2,633l-17.4-43.1h63.6l32.2,82.1
		c6.2-13.5,10.5-23.2,13-29c2.4-5.7,11-27.1,25.9-64.1L493.8,669.8z"/>
	<path class="st0" d="M589.1,586.1c12,0,23.5,4.3,34.2,13c9.9,8,17.5,18.9,22.8,32.8c4.7,12.1,7,25.1,7,38.7
		c0,9.3-1.4,18.7-4.1,28.2c-2.7,9.4-6.5,17.8-11.1,25.1c-6.6,10.1-14.7,17.6-24.1,22.6c-7.8,4.2-15.9,6.3-24.4,6.3
		c-14.2,0-26.8-5.4-38.1-16.3c-8.8-8.3-15.5-19.1-20-32.2c-3.8-11.1-5.8-22.8-5.8-35.3c0-24.1,6.7-44.2,20.1-60.1
		C558.1,593.9,572.7,586.4,589.1,586.1z M585.7,595.4l-0.3,147.4c2.3,0.2,3.9,0.3,4.9,0.3c10.4,0,20.3-3.8,29.9-11.5
		c9.1-7.5,16-17.3,20.5-29.5c3.5-9.7,5.4-20.4,5.4-32.1c0-23.5-6.7-42.6-19.9-57.2c-10.7-11.8-22.5-17.7-35.1-17.7
		C589.9,595.1,588.2,595.2,585.7,595.4z"/>
	<path class="st0" d="M723.2,621.7v97.5l-0.1,9.3c0,6.1,0.6,10.1,1.7,12c1.1,1.9,3.4,3,7,3c8.8,0,17.5-3.6,26-10.6
		s15.5-16.5,20.8-28.4c1.6-3.6,3.2-5.4,4.9-5.4c1.1,0,2.1,0.6,3,1.9c0.9,1.3,1.4,2.7,1.4,4.1c0,3.5-2.2,8.4-6.5,14.8
		c-4.4,6.4-9.4,12.1-15.2,17.2c-11.7,10.3-24.3,15.4-37.6,15.4c-18.3,0-33.5-7.5-45.4-22.2c-13.6-16.7-20.4-37.1-20.4-61.2
		c0-25,7.2-45.6,21.6-62.2c12-14.1,26.9-21,44.5-21c14.1,0,26.3,4.3,36.9,13c4.5,3.7,8.2,7.7,11,11.9c2.8,4.2,4.2,7.8,4.2,10.7
		c0,1.4-0.4,2.7-1.2,3.8c-0.8,1.1-1.8,1.5-3,1.5c-1.5,0-3.5-2.4-6-7c-3.4-6.5-8.8-12.2-16.3-17c-7.4-4.9-14.4-7.2-20.9-7.2
		c-4.5,0-7.3,1.6-8.5,4.9C723.8,603.8,723.2,610.8,723.2,621.7z"/>
	<path class="st0" d="M936.1,590l-63.6,126.4l-9.3,19.2l-1.8,4h14.3c15.6,0,31.2-1,46.7-2.8c2.1-0.2,3.7-0.3,5-0.3
		c3.7,0,5.6,2.4,5.6,7c0,4.5-2.4,6.9-7.4,6.9l-6.7-0.1l-58.7-0.8h-72.8c15.2-26.2,34.6-64.1,58.4-113.6l14.9-30.9l2.8-5.8l-11.9-0.1
		c-16.4,0-30,0.5-40.6,1.7c-2.2,0.3-4,0.4-5.4,0.4c-3.5,0-5.3-1.9-5.3-5.9c0-2.6,0.5-4.4,1.4-5.3c0.9-1,2.6-1.4,5.1-1.4l3.9,0.1
		l71.2,1.4L936.1,590L936.1,590z"/>
	<path class="st0" d="M995.3,674.5v45.3c0,8.8,0.4,14.3,1.2,16.7c1.5,4.4,5.3,6.7,11.1,6.7c8.7,0,17.3-3.1,25.7-9.3
		c8.5-6.2,15.8-14.7,22.1-25.6c2-3.6,3.4-5.8,4.4-6.9c0.9-1,1.8-1.4,2.9-1.4c1.3,0,2.3,0.6,3.1,1.8c0.8,1.2,1.2,2.7,1.2,4.5
		c0,4.1-2.5,9.6-7.5,16.5c-6.6,8.9-14.8,16.1-24.5,21.6s-19.2,8.3-28.5,8.3c-15.9,0-30-6.9-42.2-20.9c-7.1-8.2-12.5-18.3-16.4-30.3
		c-3.3-10.5-5.1-21-5.1-31.6c0-10.2,1.5-20.2,4.5-30.5c3-10.2,7.1-18.9,12.3-26.4c6.1-8.7,13.3-15.4,21.6-20.1
		c8.2-4.6,16.7-7,25.6-7c13.9,0,26.3,5.3,37.5,15.9c17.5,16.5,26.2,40.5,26,72h-26.1l-33.6,0.1L995.3,674.5z M1024,664.9v-42.6
		c-0.1-9.1-0.3-14.6-0.4-16.4c-0.1-1.8-0.7-3.5-1.5-5c-2.1-3.8-6.4-5.7-12.7-5.7c-6.6,0-10.7,2.2-12.3,6.6c-1,2.6-1.5,9.5-1.5,20.5
		v42.6l13.7,0.5L1024,664.9z"/>
	<path class="st0" d="M1086,722.5c1.5,0,3.4,1.5,5.8,4.4c3.7,4.6,9,8.5,15.9,11.9c6.9,3.2,13.4,5,19.3,5c2.7,0,4.9-0.6,6.3-1.8
		c1.4-1.2,2-3,2-5.4c0-2.4-0.9-5.2-2.8-8.4c-1.9-3.2-6.2-9.5-12.7-18.8c-16.1-22.4-26.5-38.2-31.3-47.3s-7.1-17.8-7.1-26.2
		c0-7.4,1.6-14.3,4.9-21s7.8-12.3,13.7-17c9.6-7.8,20.7-11.7,33.2-11.7c9.2,0,18.9,2.5,29.1,7.6c8,4,12,8.3,12,13
		c0,1.4-0.5,2.8-1.4,4c-0.9,1.2-2,1.7-3.2,1.7c-1.4,0-4-1.8-8-5.4c-7.9-7.5-16.6-11.1-25.9-11.1c-3.3,0-5.8,0.6-7.5,2.1
		c-1.7,1.4-2.5,3.5-2.5,6.3c0,3.4,1.5,7.5,4.7,12.5c3.1,5.1,9.4,13.6,18.9,25.7c9.3,11.8,15.2,19.5,17.7,23.1
		c2.5,3.7,5,7.9,7.2,12.7c3.9,8.2,6,17.1,6,26.6c0,15-5.6,27.1-16.7,36.3c-9.1,7.7-20.3,11.6-33.6,11.6c-14.8,0-27.9-4.3-39.4-12.9
		c-3.3-2.6-5.7-4.8-6.9-6.4c-1.2-1.6-1.8-3.5-1.8-5.4C1081.6,724.4,1083.2,722.6,1086,722.5z"/>
	<path class="st0" d="M1255.9,590v20.3c8.7-8.1,17.3-14.2,25.7-18.2c8.4-4,16.5-6.1,24.5-6.1c10.6,0,19.6,3.1,26.9,9.5
		c5.6,4.8,9.2,10.7,11.1,17.7c1.9,7,2.8,18.6,2.8,34.6l-0.2,67.7l0.3,34.1h-57l0.4-40.5l0.3-29.8l-0.1-45
		c-0.1-10.4-0.2-16.7-0.3-18.6c-0.1-1.9-0.5-3.8-1-5.3c-1.2-3.1-3.7-4.6-7.7-4.6c-3.6,0-7.6,1.4-11.9,4.1
		c-4.2,2.7-8.8,6.8-13.8,12.2l-0.1,5.9l-0.2,41.1l-0.2,31.5l0.3,42.9l0.1,6.3h-57.3l0.3-57.3l0.3-37.8l-0.3-32.8l-0.3-31.7
		L1255.9,590L1255.9,590z"/>
	<path class="st0" d="M1451.3,652.2v-17.8c-0.1-12.3-0.2-20-0.4-22.8c-0.2-2.8-0.9-5.4-2-7.6c-2.7-5.4-9-8.2-18.9-8.2
		c-15.3,0-27.1,6.3-35.4,18.7c-3.3,5.1-6.2,7.6-8.5,7.6c-1.7,0-3.2-0.8-4.5-2.4c-1.2-1.6-1.9-3.4-1.9-5.4c0-6.2,5.6-12.4,16.7-19
		c10.6-6.3,24.4-9.3,41.2-9.3c27.6,0,47.2,5.4,58.6,16.3c5,4.8,8.2,10.2,9.6,16.1c1.5,5.9,2.2,16.4,2.2,31.5v58
		c-0.3,10.7-0.1,18.8,0.7,24.1c0.8,5.4,2.5,11.2,5.4,17.4h-62.8V734c-6.9,6.2-13.7,10.8-20.4,13.8c-6.8,3.1-13.5,4.6-20,4.6
		c-11.1,0-21-4.2-29.7-12.7c-11.3-11.1-16.9-25.5-16.9-43.3c0-15.7,4.6-28.3,13.7-38c10.6-11.4,23.8-17.1,39.6-17.1
		c6.5,0,12.1,0.8,17.1,2.3C1439.2,645.5,1444.9,648.3,1451.3,652.2z M1451.3,662.8c-9.4-6.2-16.7-9.2-21.9-9.2
		c-4.4,0-7.2,2.3-8.5,6.7c-0.7,2.5-1.1,9.5-1.1,21.2v34.9c0.1,7.7,0.3,12.3,0.6,14.1c0.7,4.4,3.3,6.7,7.6,6.7c3.4,0,7.3-1.3,11.5-4
		c4.2-2.7,8.1-6.2,11.6-10.6L1451.3,662.8z"/>
	<path class="st0" d="M517.8,891.6c7.2-21.4,14.3-45.3,21.1-71.5c1.6-6.3,2.8-10.2,3.4-11.5c0.6-1.3,1.5-2.1,2.7-2.1
		c1.2,0,2.3,0.5,3.3,1.6c0.9,1.1,1.4,2.4,1.4,3.8c0,1.3-0.3,3.2-1,5.7c-0.7,2.5-3.1,10.4-7.4,23.8l-12.6,39.7L517.2,917l-9.5,30
		l-10,32.8L460,886.6c-2.5,6.1-5.9,14.5-10,25.6l-25.3,67.5L406,928.4l-14.3-38.9l-12.2-33.7L364,813.4h56.7l28.6,80.4
		c5.6-13.3,9.4-22.8,11.5-28.4c2.1-5.6,9.8-26.6,23.1-62.8L517.8,891.6z"/>
	<path class="st0" d="M608.9,813.3v4.1l-0.2,22.4l-0.2,34.6l-0.3,52.7l0.4,29.6l0.2,12.9h-51.3l0.5-52.7l0.3-46.5l-0.2-24.4
		l-0.3-27.2l0.1-5.4L608.9,813.3L608.9,813.3z M583,763.3c17.5,0,26.3,6.6,26.3,19.8c0,6.4-2.3,11.4-6.9,14.9
		c-4.7,3.6-11.1,5.4-19.5,5.4c-16.7,0-25-6.8-25-20.3C557.9,770,566.3,763.4,583,763.3z"/>
	<path class="st0" d="M687.4,762.9l-1.1,46.3l-0.1,4.4c5.8,0,11-0.3,15.8-1c0.8-0.1,1.5-0.1,2.1-0.1c2.9,0,4.4,1.9,4.4,5.8
		c0,3.6-1.5,5.4-4.6,5.4c-0.9,0-2.1-0.1-3.4-0.3c-5.3-0.5-9-0.9-11.2-0.9h-2.9l-0.1,27.7l0.3,55.6l0.3,29.7c0,6.9,0.4,11.8,1.1,14.6
		c0.7,2.8,2,4.1,3.8,4.1c2.4,0,5-2.1,7.7-6.1c2.6-4,4.8-9,6.3-14.7c1.4-5.5,3-8.3,5-8.3c2.2,0,3.4,1.8,3.4,5.4
		c0,3.6-1.1,8.1-3.4,13.5c-2.3,5.4-5,10.1-8.2,14.1c-7.8,9.8-18,14.7-30.6,14.7c-11.7,0-20.8-5.1-27.3-15.4
		c-3.3-5.2-5.7-10.9-6.9-17.2c-1.2-6.4-1.9-15.1-1.9-26.4v-10.7l0.1-30.2v-51.3c-0.9-0.1-1.6-0.1-2-0.1c-0.7,0-2,0.1-3.9,0.3
		c-1.6,0.2-3,0.3-4.1,0.3c-3.2,0-4.9-1.8-4.9-5.4c0-3.5,1.5-5.2,4.7-5.2c1.4,0,2.5,0,3.1,0.1l7.3,0.8v-16.2
		C655.6,786.4,672.8,775.2,687.4,762.9z"/>
	<path class="st0" d="M771.9,857.8l-0.2,54.9l0.4,57h-51.3l0.1-7.9l0.1-29.2l0.3-52.6l-0.5-58.4l-0.1-8.3h51.2v29.5
		c7.6-11.7,13-19,15.9-22.1c6.9-6.9,13.5-10.5,19.5-10.5c3.7,0,6.8,1.2,9.2,3.5c2.4,2.3,3.6,5.2,3.6,8.8c0,2.8-0.7,5.1-2.2,6.9
		c-1.4,1.8-3.2,2.7-5.5,2.7c-1.4,0-2.9-0.5-4.7-1.7c-2.9-2.1-5.4-3-7.3-3c-4.8,0-9.4,2.4-13.9,7
		C782.4,839.1,777.5,846.9,771.9,857.8z"/>
	<path class="st0" d="M911.8,884.7c13.1-28.5,22.6-50.2,28.5-65c2.1-5.1,3.4-8,3.9-8.9c0.5-0.9,1.3-1.3,2.3-1.3
		c1.3,0,2.5,0.8,3.5,2.2c1,1.4,1.6,3,1.6,4.9c0,1.4-0.6,3.1-1.7,5.2c-9.6,18.7-21.7,44.1-36.4,76.2l-17.5,38.5
		c-6.1,13.2-11,22.7-15,28.4c-2.9,4.1-6.4,7.5-10.4,10.1c-4,2.6-7.9,3.9-11.6,3.9c-3.6,0-6.7-1-9-3c-2.3-2.1-3.5-4.6-3.5-7.8
		c0-2.1,0.5-3.7,1.6-5.2c1-1.4,2.3-2.2,3.8-2.2c1.1,0,3.3,1.1,6.6,3.2c2.1,1.4,3.9,2.2,5.5,2.2c3,0,5.9-1.3,8.5-3.9
		c2.7-2.6,5.7-6.9,8.8-13l-11.7-26.5c-25.3-56.6-42.3-92.9-50.8-109.2h63.3c3.9,12.5,8.6,25,13.8,37.5
		C901.1,863.4,906.4,874.6,911.8,884.7z"/>
	<path class="st0" d="M1010.2,813.3v19.9c7.8-7.9,15.4-13.8,22.9-17.8c7.5-4,14.7-5.9,21.8-5.9c9.4,0,17.4,3.1,24,9.3
		c5,4.6,8.2,10.5,9.9,17.4c1.7,6.9,2.5,18.2,2.5,33.8l-0.2,66.3l0.3,33.4h-50.7l0.3-39.8l0.3-29.2l-0.1-44.1
		c-0.1-10.2-0.1-16.3-0.3-18.3c-0.1-1.9-0.4-3.7-0.9-5.2c-1-3-3.3-4.5-6.9-4.5c-3.2,0-6.8,1.3-10.6,4c-3.7,2.7-7.9,6.7-12.2,12
		l-0.1,5.8l-0.2,40.2l-0.2,30.8l0.3,42.1l0.1,6.2h-51l0.3-56.1l0.3-37.1l-0.3-32.1l-0.3-31H1010.2L1010.2,813.3z"/>
	<path class="st0" d="M1183.9,874.3v-17.4c-0.1-12.1-0.2-19.6-0.4-22.4c-0.2-2.8-0.8-5.3-1.8-7.5c-2.4-5.3-8-8-16.8-8
		c-13.6,0-24.1,6.1-31.5,18.3c-3,5-5.6,7.5-7.6,7.5c-1.5,0-2.8-0.8-4-2.3c-1.1-1.5-1.7-3.2-1.7-5.3c0-6.1,5-12.2,14.9-18.6
		c9.4-6.1,21.7-9.2,36.6-9.2c24.6,0,42,5.3,52.1,16c4.4,4.6,7.3,9.9,8.6,15.8c1.3,5.8,2,16.1,2,30.8v56.9c-0.3,10.5,0,18.4,0.6,23.7
		c0.7,5.3,2.2,11,4.8,17.1h-55.9v-15c-6.1,6.1-12.1,10.6-18.2,13.6c-6,3-11.9,4.5-17.8,4.5c-9.9,0-18.7-4.1-26.4-12.4
		c-10-10.9-15.1-25-15.1-42.4c0-15.4,4-27.8,12.1-37.2c9.4-11.1,21.1-16.8,35.1-16.8c5.8,0,10.8,0.8,15.2,2.2
		C1173.3,867.7,1178.3,870.4,1183.9,874.3z M1183.9,884.6c-8.4-6.1-14.9-9-19.4-9c-3.8,0-6.4,2.2-7.6,6.6c-0.7,2.4-1,9.3-1,20.8
		v34.2c0.1,7.6,0.2,12.1,0.5,13.7c0.7,4.4,2.9,6.6,6.8,6.6c3,0,6.5-1.3,10.2-3.9s7.2-6.1,10.3-10.4L1183.9,884.6z"/>
</g>
</svg>
