<svg xmlns="http://www.w3.org/2000/svg" viewBox="0 0 1343.448 419.289" xmlns:v="https://vecta.io/nano" preserveAspectRatio="none" fill="#191919"><path d="M604.348 394.137c2.336 3.617.557 7.364-3.95 7.739a11.391 11.391 0 0 1-3.1-.168 6.187 6.187 0 0 0-6.541 2.442c-2.295-.812 1.117-4.706-3.1-4.445a5.092 5.092 0 0 1-.247-2.3c.239-.763 1.042-1.377 2.119-2.687l-4.941-.794c-1.388 2.265.607 5.644-3.158 6.635l-2.3-5.566-1.268.251 1.254 4.765-5.527 2.18-3.209-4.582-1.315 7.732-1.842-4.065-1.319 2.893c-1.388-.831-.907-3.441-3.651-2.979-1.544.26-3.448.492-3.614-2.256-.076-1.247-5.245.156-6.05 2.129a4.327 4.327 0 0 1-1.413 2.468q-.183-2.829-.367-5.657l-.821-.034-1.06 4.564-5.069-3.232c-1.568.432-1.98 2.05-1.159 6.542-4.4-.722-9.443-.422-12.834-2.428-3.248-1.921-4.469.769-6.63.468-1.227-.171.793 3.759-2.349 1.509-.494-.353-1.984.676-2.985.614-1.5-.092-2.978-.87-4.438-.823-1.264.041-2.021 3.209-3.887.5-.3.3-.856.6-.856.911 0 1.64-1.094 2.135-2.437 1.55-.611-.266-.694-1.543-1.263-2.985l-2.238 3.334-9.308-6.715-.3 5.515-1.038.1-.955-2.358-8.566 7.847-1.1-2.818-4.278 1.243a15.537 15.537 0 0 1 .864-1.689c1.695-2.2 4.195-.992 6.442-1.159l2.71-4.431c-1.529-1.532-2.247-1.7-3.464.158-2.074 3.172-2.318 3.039-5.57 1.1l-1.17 2.725-2.1-1.373-1.146 2.465c-.351-.176-.889-.276-1.017-.537-1.108-2.27-1.092-2.2-3.752-2.382a6.02 6.02 0 0 1-2.586-1.035c-1.749-1.1-3.409-2.313-5.179-3.53-.706 2.135-1.73 2.945-4.324 2.823-1.2-.057-2.509 2.344-3.759 3.621l-1.248-1.175a14.369 14.369 0 0 1-2.59 3.126 25.088 25.088 0 0 1-4.552 2.006c-1.8-1.471-5.714-.878-4.889-4.577-2.122.324-2.167 3.787-5.111 1.6-1.071-.8-2.662-.837-3.144-1.931l-3.379 2.56-3.131-3.153q-1.182 1.668-2.361 3.335c-2.522-1.862-4.354-3.323-6.313-4.63-1.689-1.125-3.38-.393-4.863 1.957l-5.7-3.023c-2.363 2.093-6.941 1.2-8.4 4.963-.086.223-1.4.251-2.013.049-.889-.292-2.145-1.438-2.409-1.252-2.863 2.019-3.59-.705-5.033-1.745l-1.844 1.361-.978-2.954c-2.226 3.459-5.912 3.613-9.512 3.607-.53 0-1.077-1.736-1.756-2.911-2.508 3.948-6.648 2.784-10.245 2.225-1.42-.221-2.5-2.367-3.724-3.631l-3.107 3.7c-2.589-1.146-5.665-1.431-6.452-4.789l-.921 3.959c-1.193-2.7-5.972 2.762-5.906-2.379q-2.673.272-5.346.542c-1.779.179-3.553.434-5.339.513-1.914.085-1.919.012-3.6 3.107 3.935.026 7.537.644 9.408 5.249l-4.27-1.737-.9 1.814-3.993-.214-.676-4.16c-2.755 1.419-6.379 1.115-5.928 5.022-3.027.393-3.364 3.411-6.035 4.919l-.477-3.894c-1.352-.924-5.45 3.925-4.064-3.364-1.685 2.151-2.17 3.276-3.083 3.808-1.163.68-2.668.881-4.621 1.467l-.662-5.7c-1.261.372-2.412 1.067-3.435.928-1.5-.2-1.634-3.259-3.7-2.222-1.832.92-2.551.335-3.879-.577-.535-.368-2.363.2-3.105.822-1.7 1.432-3.363 1.832-5.414.761-1.426-1.514 3.777-4.058-1.293-5.105l-.192 3.584-7.662-1.718-.6-4.458-1.947 3.325-2.2-2.214 1.734-1.556-4.52-2.991-.178-5.468c-1.354 1.408-2.542 2.14-2.827 3.1-.227.761.652 1.8 1.106 2.873-3.939.54-3.8-2.393-4.942-4.185-1.089 1.2-1.326 3.6-4.068 2.5-2.195-.88-4.879-1.42-6.354-2.913-1.274-1.29-1.15-3.708-1.87-6.5l-1.233 2.8c-1.37.548 3.032 3.209-2.043 3.315-.618.013-1.173 1.682-2.246 3.336l-.214-6.448c-4.345 2.806-10.374 1.86-13.529 7.009.3-1.862-2.9-1.486-1.156-3.845 1.768-2.385 1.941-5.5-.962-8.159-1.032-.944-.991-2.85-1.663-5.046l-3.194 3.267-2.158-6.471c-1.025 1.923-4.1 1.431-1.974 3.977 1.085 1.3 1.372 3.249 1.645 4.95.114.711-.746 1.541-1.247 2.473l4.878 2.574 1.85-3.344 2.273 2.621-4.401 9.383a31.1 31.1 0 0 1-2.134-4.226c-.272-.854.182-1.871.028-2.779-.208-1.239-2.525-1.671-4.533-.932-4.379-5.711-4.379-5.711-2.268-8.57-3.5.513-6.333-1.916-10.625-.186a16 16 0 0 0 2.493 1.132 21.094 21.094 0 0 0 2.638.167l-.328 6.123 7.078 3.695-4.912 2.931c-2.809 0-4.584-2.8-3.546-11.835l-4.6 2.17c.822 2.794 3.114 5.257.587 7.935l-1.372-3.015c-2.621 1.453-6.334 5.248-5.614 6.049 2.551 2.841-.262 2.8-1.89 3.474l-1.2-15.245a25.606 25.606 0 0 1-5.305-1.055c-1.46-.594-2.559-1.931-4.875-2.185l1.307 1.915-2.357 1.488 3.755 5.168c.646-.654 1.337-1.035 1.458-1.534.344-1.42-.488-3.633 2.995-2.658l-.415 7.745c-1.669-.414-3.245-1.125-4.772-1.06a3.418 3.418 0 0 0-2.394 2.079c-.173.571 2.2 1.813-.565 1.771-.453-.007-1.148-1.189-1.305-1.9-.666-3.03-1.171-6.088-1.835-9.674l-4.552 2.135 3.234 1.248c.03.167.136.453.076.484l-5.55 2.882c-2.979-3.538-4.069.556-6.245.976-.352-.722-.676-2.38-1.307-2.487-1.548-.263-3.237.187-5.326.4.114-.793.248-2.048.5-3.284a6.625 6.625 0 0 1 .684-1.459c-2.389-.885-1.583-4-4.536-4.825-3.063-.857-2.738-5.146-6.219-6.13a2.633 2.633 0 0 1 .1-2.241c2.2-1.793.386-3.852.136-6.219l-3.034 2.68-2.949-6.064-.871 3.822-5.083.621c-1.933-1.285-.8-5.977 2.658-9.745-1.578-.021-2.915-.316-3.964.049-.649.226-.861 1.456-1.245 2.188-1.217-1.227-2.243-3.146-3.73-3.524-1.663-.423-3.746.55-5.654.917l-2.671-5.55 5.139-.734.042-.665c-1.129-.169-2.478-.051-3.324-.587s-1.146-1.725-1.719-2.611a.681.681 0 0 0-.517.063c-1.1 2.077-2.351-.945-3.292.008-1.658 1.679-2.173-.18-2.674-.814a18.85 18.85 0 0 1-1.819-3.549c3.4-1.318 3.434-1.894-.4-5.2l-3.826 4.2-1.771-3.581c3.947-2.425 5.047-2.7 7.22-1.517.158-6.109 6.271-6.75 10.305-9.32.189-.12 1.009.237 1.235.548.867 1.191 1.461.594 2.253-.058a2.166 2.166 0 0 0 .864-2.907c-.992-2.712-4.269-3.388-5.622-5.74.673-1.911 3.625-3.842-.771-5.918l-1.966 2.988c-1.785-1.576-2.878-2.189-4.415-.1l-.236-5.662c-1.821-2.029-3.949 2.088-5.547-.574-2.179 2.085-3.088-1.14-4.806-.986.011-2.8-2.515-3.5-4.587-4.674-1.417-.8-2.234-2.259-1.383-3.6.594-.939 2.058-1.421 3.392-2.272l-2.183-4.616-4.146 1.79a20.3 20.3 0 0 1-.438 5.317c-.249.805-1.09 3.1-3.731 1.147-1.163-.861-4.061.207-6.552.434a3.8 3.8 0 0 1-1.845-4.451c.512-1.675 1.2-3.3 1.8-4.957l1.821-5.137-2.508-2.117-2.19 3.37c-4.875-5.022-4.875-5.022-2.341-10.693l-7.6 1.311c-.559-3.521-.695-6.685 1.651-10.235-1.818.192-3.208.291-4.578.5-1.4.21-2.771.525-4.479.857l-.479-4.334c-2.34.693-2.922 1.507-1.574 3.626.7 1.1-.168 3.013-.357 4.841-4.389-1.162-2.972-5.292-5.572-6.911l-7.02-4.377c.265-1.084 1.037-3.076.743-3.217-3.841-1.839-5.245-5.694-8.425-8.014-.165-.12-.505-.041-1.291-.083l-1.018 5.965-1.752-1.763-2.874 3.574-7.188-3.741-.512-3.359-.859-.008-.481 8.989c-2.065-4.118-2.18-4.7-1.133-9.877 1.563-2.047 6.129 2 6.5-3.2 1.426 1.195 2.648 3.02 3.717 2.96 2.813-.159 1.263 2.678 3.813 3.078l-1.605-11.139-.725-.1c-.188.76-.355 1.526-.572 2.279-.18.624-.417 1.233-1.01 2.954l-1.142-7.092-1.32 5.378c-1.275 1.251-4.711-1.312-4.491 2.214a8.369 8.369 0 0 1-1.568-.01c-1.9-.362-3.779-.783-5.581-1.163-1.669 3.625-.579 6.6.676 9.558 1.016 2.393 1.031 2.387.72 6.153l-2.235-1.41-1.131 2.463c-.347-.193-.951-.351-.986-.575-.44-2.848 1.619-5.908-1.021-8.573 3.727-2.538-1.184-1.574-1.354-3.137l3.734-1.9-4.4-3.5-1.527 5.049c-3.676-4.948 3.808-6.864 2.55-11.333l2.643 1.4 3-2.434 1.332 2.949 3.337-2.709 2.628 5.639c3.037-2.293 2.527-4.989 1.03-7.847-.585-1.118.652-4.989 1.879-5.883.223-.163.907.19 1.649.371q-.158 2.961-.329 6.143c2.215.874 2.441-1.229 3.655-1.605 1.326-.411 2.6-.945 3.974-1.451 2.185 1.159-2.233 5.292 3.336 5.637l.391-7.029c.15-1.863-.667-3.988 2.816-4.578 1.155-.2 1.163-2.823-.439-4.117-1.7-1.375-2.34-2.943-1.176-5.351l4.023 3.439.247-4.61c1.921.366 4.847-.8 4.828 2.6 0 .014.677.038 1.112.061l.2-3.738-6.065-.325a3.263 3.263 0 0 0-2.668-4.239c-2.313-.359-5.067-1.313-7.138.778-3.386-2.422.079-5.361-.614-8.057l-4.691-.9 1.922-1.782-3.116-1.143.2-3.824 4.024 3.892c.912-3.129.171-5.9 2.409-7.715-1.727-2.119-1.253-4.673-1.283-6.9-3.979-1.011-2.436.711-1.8 1.962a38.366 38.366 0 0 1-7.123-1.8l3.8-3.689c4.21 1.745 8.343 2.732 11.184 7.787l.439-8.207 8.051 3-1.47-4.013 2.734-.162-.385 7.185c2.96-.685.3-4.662 3.868-4.113 2.475-3.759 5.563-3.2 8.87-.929 1.356.93 2.674 1.907 4.021 2.87l2.4-1.952-2.815-1.028a5.069 5.069 0 0 1 .285-.91c2.806.329 2.961-1.5 2.538-3.039-.248-.9-1.724-1.527-2.684-2.309 5.018.042 5.361.327 5.863 3.915a45.138 45.138 0 0 0 1.308 4.933l4.521-5.333.209 7.632c2.446-1.157 4.838-2.068 4.811-5.087 0-.439 1.3-1.273 1.965-1.244 2.849.123 4.168-1.026 4.472-3.56-5.273 1.036-10.231 1.19-15.507-2.05.038-.712.026-2.045.2-3.356.231-1.751.127-3.027-2.374-3.409-.653-.1-.992-1.863-1.518-2.844-2.555-4.76-2.552-4.728-8.34-3.482-.815.175-2.318.167-2.548-.217-2.071-3.464-5.907-2.078-9.138-2.935l-.381-2.182-5.225.91-2.085-6.288 7.679-4.833.531 4.629c1.287-2.968 3.727-3.7 6.127-4.258.6-.14 1.532.842 2.335 1.323L69.738 146c-3.375-.956-4.307-2.916-5.02-5.945-.641-2.715 2.939-4.769-.5-7.66-1.8-.661-3.925-.206-4.97 2.554a25.338 25.338 0 0 1-.7 2.454c-3.507-.275-3.453 3.406-5.865 4.185a10.125 10.125 0 0 1-2.849-.114l-.139-6.605-.695-.185a11.943 11.943 0 0 1-1.285 3.454 23.457 23.457 0 0 1-3.741 3.135c-.576-5.059-5.326-2.209-8.057-3.817l.2-3.726 7.05.377c-2.97-2.5-4.468-4.374-3.868-7.194.287-1.348-.67-2.924-1.224-5 3.034-3.175 8.429-3.24 12.341-5.657.445-.275 2 1.269 3.088 1.358.758.062 1.609-.924 2.75-1.652l-11.079-3.552c4.728-3.5 8.879-5.423 13.981-4.871 2.843.307 3.387-1.851 4.723-3.1.287-.268-.583-1.55-1.061-2.7 3.568-.8 7.341-1.61 11.377-1.186 2.6 1.723-.033 5.382 3.683 7.512l-.169-7c3.2-3.115 3.2-3.115 6.466-1.441l.272-5.1 5.042-.552.274-5.119h1.076l.472 7.053c4.133-2.2 3.338-5.1 1.7-8.765 4.755 1.768 8.1 5.815 13.428 5.065l-1.33-3.493c3.346-1.385 3.951 1.129 5.211 2.283 1.649 1.511 3.537-2.552 5.126.952l1.512-5.517 1.164 3.641c2.07-1.733 3.725-4.1 7.9-3.591l-5.413 2.612 6.687 3.443c1.339-.588 4.214-1.347 7.169 1.894l.361-6.775c1.758-1.357 3.33 2.9 4.84-.251.307-.642 1.451-1.62 1.722-1.5 2.937 1.27 5.914-3.107 9.033.243.5.532 3.488-.835 5.477-1.363l2.641 7.667 1.061-.051c.083-1.546-.229-3.243.389-4.583.4-.872 1.084-3.188 3.686-1.167 1.385 1.076 3.869-.591 4.113-2.463.27-2.066.259-4.165.374-6.311l-3.084-1.2 4.156-1.9c2.871 1.12 1.295 5.754 6.17 5.8l.847-3.749c1.188.378 2.647 1.328 3.564 1.013 1.189-.408 1.947-1.823 3.1-3.02l-9.976-3.168c.688-2.428 1.844-3.822 4.243-3.569.888.094 1.4 2.25 2.75.448l1.885 2.611c1.861-3.061 5.111-2.846 9.5-2.209l-3.232-5.268c2.551-.285 3.3-3.592 6.945-3.584 2.647.005 2.071-5.24 6.657-4.855.081.811.22 1.66.236 2.51.017.9-.082 1.8-.139 2.848.672-.087 1.193-.013 1.368-.2.533-.578 1.474-1.642 1.3-1.837-2.149-2.453-.046-4.813-1.108-8.411 1.752 2 2.333 3.325 3.148 3.464 2.281.39 4.848-.3 4.885-1.294.113-3.067 1.869-.775 2.9-.994 2.777-.59 4.451-2.275 4.065-5.992 1.908 3.619 1.908 3.619 5.132 3.983 2.559-2.019-.914-4.55.812-7.1 1.09-1.615-1.1-4.778 2.091-7.333-.8 4.655.623 8.345 3.555 11.954l3.156-3.786c1.96 3.256 4.609.561 6.177-.15s2.156-3.2 3.172-4.909c1.911 1.1 3.578 1.686 2.646-2.188l6.663 3.381c1.863-.718 3.577-1.807 5.412-1.991a10.034 10.034 0 0 1 8.794 3.246c2.3-2.511 5.224-3.985 8.412-1.728 1.955 1.384 3.647-2.1 4.2-.151.727 2.54 3.946-1.922 3.9 1.611-.011.85 2.375 1.748 3.655 2.622l2.888-2.344c5.445 2.385 5.9 2.165 8.166-3.708l2.43 2.635 2.375-2.635a13.014 13.014 0 0 0 2.8 2.688c.963.508 2.367.324 3.7.459l.665-3.809c1.377-.2 3.1-.039 4.161-.717 1.612-1.031 2.428-.89 3.875.271a34.515 34.515 0 0 0 5.459 3.014l-1.478 1.323c2.322 1.323 3 .59 3.349-1.582.19-1.183 1.386-2.223 2.322-3.616 1.2 4.8 2.494 7.285 5.692 7.313 3.042.027 5.539 1.67 8.371.789.162 1.01.258 1.446.3 1.886.087 1.046-.6 2.68 1.473 2.5 2.528-.225 1.558-1.489.867-2.881-.307-.619.589-1.717.645-3.194 2.518 1.614 2.84 1.677 5.887.714.2-.062.2-.6.395-1.246a22.98 22.98 0 0 0-6.281.532c-1.785-.038-1.778-3.495-5.126-2.564-1.517.422-2.116-.484-2.251-1.971-.039-.425-2.008-.826-3.138-1.063-3.813-.8-4.133-1.264-3.545-5.712 3.618-.373 3.272 2.721 4.607 4.311 1.94-1.268 3.525-2.672 2.214-5.215-3.119-1.227-7.13.624-9.938-2.177-.2-.2-.94.048-1.427.1-4.749.526-4.849.433-3.462-3.563.4-1.158.883-2.293 1.33-3.441l-3.244-1.245c4.669-1.6 7.163 1.8 10.741 2.111-.069.092 3.216-1.639 3.55-1.62-1.672 2.811-1.672 2.811 1.523 3.921l.289-5.4 1.048-.106 1.195 2.969c1.931-.716 4.207-1.056 5.69-2.221 2.713-2.131 3.2 2.352 5.729.974l1.073-3.908.929.115q-.138 2.621-.279 5.24l1.058.247 1.313-2.414c3.349-.345 7.869.682 11.116-2.364 5.519 5.056 4.331 3.688 9.573-1.053.433 1.038.767 1.913 1.162 2.764.465 1 .984 1.988 1.634 3.29l5.421-1.894-1.667 3.867c3.277-1.691 6.492-1.145 9.1-3.131 1.861-1.419 4.1-2.77 6.776-.851a3.619 3.619 0 0 0 2.262.1c1.356-.222 1.8-2.276.958-4.105l4.6-3.756c1.619 3.511-5.393 7.462.978 11.14l2.952-5.54 1.821 8.2 4.475-4.99 2.482 3.766 1.988-4.97c2.879 1.036 1.685-2.254 3.622-2.6l.491 4.064 4.316.231a6.783 6.783 0 0 0-.96-1.5c-2.466-2.088 3.171-3.008.769-5.335a9.523 9.523 0 0 1-2.228-4.743c-.517-2.337.726-2.828 4.223-2.279 2 .314 4.066.255 6.829.4.691-.108-1.586 4.784 2.339 1.322l.785 4.325c2.274.934 4.722-3.107 6.581.506a17.193 17.193 0 0 0 2.335-1.033c.675-.422 1.112-1.295 1.822-1.495a9.938 9.938 0 0 1 2.921.09c-.738 2.659-1.063 4.855-2 6.8-.544 1.131-2.075 1.865-2.88 2.655-1.805.073-3.305.214-4.529.329-.654 1.985 3.98-.4 1.717 2.634-.731.98-.517 2.544-.733 3.84l1.057.151c.873-2.231 1.746-4.462 2.488-6.954 2.472 1.221 1.469 4.315 3.757 6.056l.2-3.787 5.007-.638-2.372-11.794c.371-.06.979-.269 1.068-.153.814 1.055 1.538 2.167 2.783 3.987l6.576.352c-2.017 1.04-.514 3.784-3.384 4.169-2.784.373-4.364 2.2-1.772 4.831a3.028 3.028 0 0 0-.659 2.163l4.625-1.65 1.541 3.439 1.2-2.68c1.95.259 3.95 3.179 5.833-.034 3.021.457.329 2.867 2.244 4.133l3.027-4.984c2.27 1.284 5.551 1.952 5.041 5.681l3.039-8.237a4.578 4.578 0 0 1 .75 1.173c.114.439-.206 1.009-.008 1.381.529.995 1.019 2.293 1.945 2.732.626.3 1.966-.655 2.978-1.045l3.121 4.784c1.4-1.9 3.1-7.727 3.015-9.844-.034-.872.08-1.747.125-2.6 2.357-.082 4.823-1.147 4.6 2.118l2.651-.117c1.934 2.654-.944 3.949-2.594 5.366l4.075 4.144 4.17 4.118-2.559.331 1.666 4.282c1.2-.376 3.1-1.376 3.48-1.025 2.425 2.23 1.95-.066 2.37-1.055.513-1.21 1.11-2.391 1.584-3.612.164-.422-.027-.958.126-1.387a2.78 2.78 0 0 1 .816-1.07c.829-.722 1.4-1.685 2.906-.338.473.422 3.9-.324 3.423.942-1.278 3.36 2.914 4.352 2.1 7.431 5.362-1.575 5.526-5.508 7.575-9.652l.261 8.148.785.049 1-3.8 8.078-1.659-3.832 3.863c4.031 1.513 6.068-.162 7.074-4.413l1.173 3.539c4.325-1.35 5.322-.677 4.934 3.387l-2.019-1.847-.546 4.064 5.855 1.78c.658-1.548.15-4.372 3.761-4.119l-1.337-4.808c3.825-1.5 4.479 6.161 9.122.588-.381 4.8.964 7.889 5.253 9.417 3.094-2.644-1.818-4.363-.583-7.5l-2.05 1.664c-.915-2.68-.915-2.68 1.279-5.065l5.369 3.025c3.779-2.734 3.779-2.734 2-6.366l4.084-3.134c2.816 1.791 2.816 1.791 4.461-1.3 2.579.138 5.478-.1 8.132.534 3.4.814 4.742-2.236 7.5-2.8l2.16 3.9 4.192-4.6 3.955 5.457 7.162-1.661-5.847-4.438c5.678-.35 9.958-4.392 15.539-2.292l2.191 8.958c1.082-1.876 2.632-3.345 2.3-4.28-.466-1.309-1.256-2.137.878-1.772 2.479.423 2.8-1.1 3.938-3.324l.729 6.188.705.1 1.209-6.922c2.436.982 2.436.982 2.79 4.444l9.94-1.053c.3-.037.692-.679.727-1.066.146-1.7 1.589-2.014 2.482-1.175.554.521-.179 2.162-.4 3.756l3.792.415.605-4.077 5.252 2.667c.345-1.8 1.857-2.582 3.88-3.023 2.781-.607 1.018-3.36 2.855-5.077.248 1.076.156 2.105.653 2.465.594.431 1.692.289 2.571.4l-.468-3.643 5.449-2.78.563 5.167 4.81-5.272c2.755 3.05-.965 4.592-.633 6.681a58.43 58.43 0 0 0 1.824 6.588l1.778-2.906 1.376 3.046c3.234-3.1-1.117-6.023-.109-9.487 2.891-.753 6.161-.867 7.44 2.18 1.262 3.006 4.549-.105 6.026 3.38l.329-6.148 1.113-.289.647 3.581c2.966 2.195 4.734-.29 6.924-1.967.6 1.348 2.066 3.37 1.615 3.823-3.207 3.216 2.618 1.119 1.831 2.694l-1.541 1.41 3.811 2.026 2.4-2.439c1.081 2.579 2.872 1.533 4.728.9 2.172-.74 2.213-.632 5.748 1.272l.725-6.137-4.321 1.232c-2.1-2.788-2.015-6.153-1.46-9.362-1.133-.218-1.7-.5-2.081-.363a13.36 13.36 0 0 0-2.222 1.315l-.563-2.646 5.781.309 2.66 5.449c1.908-.822-.645-4.847 3.829-3.807l-.327 6.116c4.158 2.652 7.9-1.405 11.761-.023 2.05-2.711 3.808-.446 5.712.271a8.655 8.655 0 0 0 2.377.162c1.227-2.208.868-5.406 5.048-5.75 1.149-.1 2.068-2.234 3.372-3.761l4.612 2.186-.975-6.1L773.1 4.6l-.266 4.968c.9-1.956 5.113-3.066 1.9-6.238 2.132-.607 4.89-.1 6.3-2.206a1.847 1.847 0 0 1 1.545.058c2 2.562 4.521-1.179 6.412.5 2.628 2.335 4.534-1.243 7.246-.383l.478 3.771.681.113L798.615 0c.477.28 1.105.484 1.1.673-.038 2.044-.173 4.085-.315 6.736 2.376-2 3.9-2.241 5.521-.223.623.775 2.016 1.047 3.058 1.549.8-2.713 4.649.455 5.562-2.362a6.056 6.056 0 0 1 2.273-2.551 2.2 2.2 0 0 1 1.966.275 1.728 1.728 0 0 1 .185 1.813 25.293 25.293 0 0 1-3.238 2.723 16.241 16.241 0 0 1 2.55.794 9.4 9.4 0 0 1 1.649 1.414c1.016-1.9.131-4.961 5.829-4.219l-5.778-2.17 4-1.169 1.776 1.788c1.732-1.139 3.27-2.7 5.181-3.293 4-1.245 5.964.271 6.9 4.667.084.4.47.747.828 1.291l1.452-3.275a13.761 13.761 0 0 0 1.238 2.927 4.154 4.154 0 0 0 2.1 1.506c.53.127 1.344-1.716 1.92 0 .145.429-.872 1.256-1.488 1.768a14.18 14.18 0 0 1-2.872 1.042l5.111.273c.2-1.892 4.609-3.35.432-6.519l6.845.042-.368 3.129-2.3-2.01-3 9.907c4.667-1.716 2.1-7.9 8.133-7.463l1.068 2.3 1.759-1.265 4.567 4.6 1.564-2.552-2.049-.908 4.5-3.759-.315 5.9 6.333-2.544 4.388 6.038.617-11.526 3.395.735-1.958 1.773 3.497 1.345-3.537 1.14c1.118.76 1.043 3.531 3.485 1.306a13.433 13.433 0 0 1 1 1.237 8.108 8.108 0 0 1 .525 1.212c2.919-3.183 5.47 2.238 7.819.485 1.471-1.1 1.847-3.384 3.035-5.8l3.213 5.028 1.954-3.189c1.062 1.7 1.946 3.21 2.972 4.641.149.209 1.006.133 1.453-.012.216-.07.455-.758.322-.911-1.75-2.014 1.065-2.857 1.263-4.349 1.311.955 2.78 2.837 3.9 2.69 3.789-.494 4.46 5.226 8.786 3.041-1.5-2.495-1.01-5.192-.434-8.053 3.784.041 4.254 3.441 6.958 4.505l5.931-1.247-2.493 2.275 2.182 2.2 1.6-2.721c1.73-.381 2.827 1.909 5.076.172 3.305-2.553 6.066-1.162 6.509 2.743a5.228 5.228 0 0 0 1.018 3.353l.876-4.963 3.871-1.706c1.194 3.19 3.728-.246 5.37.938.908.655 2.688 1.066 2.8 1.746.449 2.739 1.584 2.547 3.465 1.127a2.21 2.21 0 0 1 1.347-.385c1.515.1 1.079.48.653 1.574-.6 1.546.614 2.749 2.623 2.746.185 0 .618-.856.5-1.185-.8-2.151 1.041-3 2.425-2.707 2.957.616 5.752 1.892 9.252 3.123l-.693-5.418c3.236-2.083 5.668 4.035 9.469 1.861l4.407 4.437c2.221-3.664 5.934-2.6 8.885-2.4 1.125 1.146 1.845 2.517 2.907 2.8 1.34.357 2.958-.175 4.457-.323l2.877-2.372 3.487-4.266-.014 6.8c1.438-.8 2.674-1.088 2.973-1.736.925-2.007 1.493-4.152 2.444-6.967 2.31.124 5.646 1.221 7.692.209 3.572-1.767 4.365 1.658 7 1.59l.259-4.829-2.77.118c.228-.619.462-1.774.682-1.77 1.5.032 3.4-1.2 4.136 1.493.446 1.629 1.038 1.5 3.708.1l3.784 3.538 3.954-4.418 1.362 6.482 3.641-10.692 4.717 9.7 2.719-3.342c1.9.911 2.418 2.436 2.265 4.428-.028.384 1.527.882 2.857.665l-1.381-1.7 4.643-3.1c.4 1.14 1.685 3.138 1.183 3.624-2.7 2.617-1.4 4.35 1.233 6.461l.9-4.144.72-.051.792 4.059c.88-.279 2-.917 2.31-.682 1.521 1.176 2.515 2.974 5.07 2.679.319-.037.915 1.233 1.249 1.947.372.8.562 1.661.88 2.482.372.96.794 1.905 1.343 3.208l3.2-1.615 3.809 4.626.937-.464-1.2-3.118c2-2.154 4.662-.71 6.816 3.514 1.753-1.589 3.426-1.723 4.8.393a12.548 12.548 0 0 0 3.639 4.207q.185-3.426.367-6.853c2.515-2.364 4.035.8 6.686.324l-2.775 2.982c1.417.81 2.821 1.247 3.584 2.133 1.183 1.372 2.089-1.606 3.5.161.6.742 3.578-1.708 2.745-2.441-3.184-2.8.555-4.3.962-6.679 1.049 1.48 1.748 2.744 3.424 3.641.973.52.5 3.278.686 5.064 2.734-.609 2.87-.967 1.36-4.107l5.107.253h-.442c-.072 1.345-.216 2.69-.2 4.035.026 2.122 1.338 1.905 2.59 1.36a26 26 0 0 0-1.949-5.392 13.074 13.074 0 0 1-1.334-3.965l6 .321-1.6 6.788c.907-.4 2.428-.687 2.511-1.182.479-2.849 2.88-.94 4.364-1.609l-2-11.237 5.875 2.03c-.588 2.28-1.541 4.361-1.54 6.451 0 1.877 1.049 3.763 1.8 6.172l4.184-4.722c4.7 4.584 1.77 10.082 3.7 14.828l.474-8.851 2.606 1.933 1.279-3.892c4.029 1.082 1.292 3.637 1.582 5.5.341 2.21.534 4.438.792 6.666 4.216.659 4.43.761 7.986 4.085l2.186-7.273-3.966-3.117c-.775-1.8-2.4-3.532-.731-5.711l2.969 4.566 1.365-1.108c3.885 5.556 3.885 5.556 3.915 9.678l5.609-.4 1.984 4.962c1.423-1.067 2.514-2.527 3.377-2.416a66.91 66.91 0 0 1 8.455 2.036c.185.049.438.374.41.534-.251 1.468.489 2.494 2 1.977.7-.241.812-1.863 1.188-2.86.078-.206.144-.416.265-.768 1.224.4 2.513 1.253 3.655 1.126 3.092-.345 1.948 2.229 2.917 3.275.755.815.473 2.415.707 4.046-1.613-.086-2.707.091-3.573-.236-2.395-.9-8.578.072-10.67 1.959-.437.394-.493 1.135-.769 1.825a17.2 17.2 0 0 1-2.212-2.3c-.337-.518-.222-1.273-.376-2.411l-5.565 6.794c-3.956 1.78-7.076-1.638-10.633-3.52l-3.221 11.383c-3.63-3.322-2.116-7.218-2.325-11.6-1.471 1.616-2.328 2.946-3.572 3.837-2.028 1.453-1.753 3.637-1.223 5.085.512 1.4 2.74 2.3 4.5 3.636l-3.746 5.925a13.55 13.55 0 0 1 11.113 3.254c3.6 2.945 8.4 3.255 12.628 4.8.847.31 2.205-.55 3.684-.973a7.778 7.778 0 0 0 .231 2.416c.266.67 1.058 1.683 1.583 1.671 1.874-.044 2.011-1.458 1-2.309-1.68-1.411.092-1.755.559-2.523-.866-.378-2.286-.6-2.479-1.165a4.441 4.441 0 0 1 .92-4.025l7.208 10.211 3.167-3.677c2.816-.656 6.12.286 9.075 2 1.152.67 1.75 1.474 2.793.157l2.689 3.1c-1.781 1.783-4.356-3.531-5.179 1.239-.137.785-2.225 1.451-3.535 1.845-2.485.747-2.522.649-2.681 2.463 1.529-.21 3.173-.842 4.508-.487 1.01.268 1.625 1.8 2.645 3.043l6.229-2.481 1.253 3.2 1.38-4.6c5.587.313 3.5 4.16 3.888 6.127l5.68 4.083c.159-.745.216-1.912.444-1.938 2.212-.252 4.714-.953 6.632-.3 4.3 1.475 1.819 5.191 2.629 8.6l2.73-3.348 3.515-4.039c-.22 4.244-.357 7.773.8 11.3.669 2.046.526 4.751-2.9 6.018-.084-.813-.13-1.645-.271-2.465a18.968 18.968 0 0 0-.525-1.9c-4.954 2.178-5.552 3.492-2.778 6.251.962.958 2.445 1.474 3.5 2.376.585.5.774 1.384.233 2.771l-2.019-1.755-.338 6.313c.709-.92 1.146-1.255 1.253-1.664.574-2.181 2.249-1.958 3.011-.584.552 1 .314 2.467 2.022 2.057 1.072-.257 2.581-1.3 2.678-2.12a46.765 46.765 0 0 0-.185-7.327c.108 0 1.2-.325 1.475-.029 2.788 3.032 2.75 3.06 6.369 1.867 2.716 2.578.146 5.93 1.652 8.681a14.252 14.252 0 0 0 .868 1.223l1.4-3.135 1.559 3.081c.232-1.554 2.638-3.115-.93-4.365-2.34-.82-1.612-4.1-.126-5.182 2.249-1.643 1.68-3.064 1.092-4.914-.186-.584.163-1.3.281-2.049 3.818 1.881.6 7.753 6.879 7.989l2.754-2.073q1.044 1.052 2.087 2.1c-.125 1.533-4.147 1.167-2.139 3.933.67.925-2.513 2.032-.537 3.863 1.238 1.146 2.649 1.112 3.971 1.635 1.345.533 2.221 2.052 2.459 4.051-.857-.455-2.117-1.5-2.51-1.276-4.318 2.4-6.014.147-7.118-3.69l-1.619 3.458-1.474-3.574-1.162 2.591c-.243.1-.692.463-1.111.432-3.208-.233-6.3-.281-9.488-1.64-1.921-.819-5.055.735-7.659 1.225 1.128 2.192 3.523 4.382-1.387 5.461-1.39.305-1.022 5.719.129 6.966 1.783 1.929 2.994 1.693 5.4-.846.4-.42 1.326-.426 2.482-.76l.292 2.808c.151 1.76-1.13 3.9 1.131 5.124a56.662 56.662 0 0 0 6.569 2.664.829.829 0 0 0 .674-.163c3.13-2.926 3.056.392 4.272 1.688 2.087 2.225 2.212 2.128-.007 4.173l-3.6-1.853-.226 4.225 5.849 2.791-.269 5.022c1.289-.378 2.518-.961 2.708-.756a5.507 5.507 0 0 1 1.676 2.862 54.786 54.786 0 0 1-.284 6.839l2.33-1.389 4.447 7.053 1.609-2.748c.68 2.437 1.435 4.745 1.919 7.1a6.844 6.844 0 0 1-.538 2.6c-3.21-1.252-2 3.411-4.826 2.891a58.129 58.129 0 0 0-6.413-.385c2.583 3.029 6.619 4.228 6.518 8l-3.125 1.212 1.325 2.3-4.943 1.807a25.655 25.655 0 0 0 1.882-3.322c.794-2.311-4.28-1.022-2.92-3.768l-1.527.114c.6 2.554-2.62 1.4-3.64 2.891l5.548 9.152-4.3-1.7 1.349 6.637-5.263-1.607 2.231 2.624c-1.443.505-3.646 1.808-4.188 1.38-3.576-2.822-1.181 2.389-2.952 1.658-1.133-2.126-2.371-3.281-5.151-4.554l-.367 6.839-4.771.235a13.363 13.363 0 0 1-.188 2.566c-.1.418-.715.727-1.1 1.086-1.719-2.272-3.376 1.232-5.049 0-1.785-1.307-3.331 2.223-5.117.12-.961.751-2.554 1.379-2.758 2.278-.5 2.207-.37 4.54-.539 7.72l-7.118-4.556-.807 4.837 9.438.505-.2 3.773-4.579.533-.442 3.738-5.909-.316c-.06 1.129-.326 1.844-.088 2.381 1.063 2.4 2.269 4.753 3.66 7.608l6.677-1.215a42.036 42.036 0 0 0-.033 6.3c-1.265-1.466-2.788-.913-4.389-.676-4.1.607-1.877 2.521-1.952 4.379a41.491 41.491 0 0 0 6.34-3.7c.2.3 1.23 1.334 1.083 1.5a8.765 8.765 0 0 0-1.815 4.285c-.575 2.489-2.824 4.833.832 6.992.512.3.335 1.7.313 2.59-.053 2.091-.2 4.179-.352 6.931 3.91-.771 7.678-.83 10.466-3.806a9.678 9.678 0 0 0 5.949 6.532l-2.685 2.55c1.064.713.914 3.572 3.611 1.554.518-.387 2.132 1.9 3.209-.09 4.326 4.812 4.072 12.225 11.683 15.793-2.068 1.267-3.968 2.11-5.374 3.4-1.058.968.789 4.085-2.869 3.373l-1.944-8.354c-2.158.12-.943 3.479-3.679 2.486-1.563-.567-3.106-1.178-5.219-1.983.315 1.209.981 2.459.653 2.73-1.631 1.351-.655 2.355.651 1.732 2.378-1.135 3.322-.288 4.675 1.675l-2.968 3.02-4.824-2.247-.964 4.352c-2.974-2.419-9.292-.133-9.112-6.4-2.58 3.426-3.346 3.684-7.068 2.879l-9.138-1.888c-2.234 4.357 3.31 6.234 3.347 9 .053 3.962 3.657 5.807 4.164 9.319-1.625.006-4.181 1.65-4.335-2.054-1.97.312-4.148.25-5.866 1.017-3.2 1.431-4.4 2.062-6.978 1.885-1.708-.117-3.694.393-4.815-1.44l-2.468 1.435a35.86 35.86 0 0 1 1.956 4.022 30.689 30.689 0 0 1 .791 4.408l-6.018-6.1c-.109-.1-1.016.476-1.551.738l1.285 1.294-9.381 3.623c-.962.949.851 3.869-2.028 4.244a30.833 30.833 0 0 1-7.294-.124c-1.535-.171-3-.915-5.909-1.865a44.492 44.492 0 0 0 2.139 4.013 14.363 14.363 0 0 0 1.719 1.8c-.99 3.893-3.311 2.467-5.839 1.564l-1.287 4.434-1.847-1.657-2.361 3.961.429-8.02-.85-.143c-.7 1.407-1.032 3.218-2.212 4.113-1.331 1.01-3.428 1.2-5.118 1.718-.4 3.055 2.447 3.18 4.365 4.289-2.769 2.474-4.725-1.063-7.561-1.019l1.662 3.52a13.76 13.76 0 0 1-2.548.659c-2.884.159-4.988.645-2.829 3.879.172.259-.516 1.376-.989 1.49a3.431 3.431 0 0 1-1.9-.6c.644-2.477-2.68-1.863-3.016-3.1-.4-1.467.056-3.115.181-5.451-3.266 4.129-3.266 4.129-8.036 4.82l-.336 6.3-3.861-.207-1.768 2.975c-.644-.075-1.427.029-1.6-.218-1.714-2.406-4.074-3.263-7.185-3.133-2.569.107-5.166-.227-8.1-.384l-4.32-5.177c-2.381 4.076-5.85 5.4-10.315 5.878l.189-3.543c-.627-.229-1.1-.562-1.329-.458-1.512.687-3.3 1.2-4.374 2.274-2.092 2.1-4.817-1.857-6.619.755l-3.173-2.324c-1.28 1.684-1.882.012-2.962-.731l-1.132 5.4c-2.351-.722-2.227 2.373-4.424 2.246a9.757 9.757 0 0 1-4.574-.987 29.28 29.28 0 0 1 1.643-8.409c-2.269-1.342-1.945-1.364-1.8.185.315 3.309 2.254 3.294 4.7 2.443-.529-1.839-1.039-3.614-2.9-2.627-2.841 2.711-4.341 2.631-6.072 2.538l2.208-3.227c-3.867-2.637-6.558 1.392-10.182 1.06.531.609.958 1.6 1.613 1.748a25.257 25.257 0 0 0 4.359.312c1.344 2.907-2.755 3.6-2.384 4.519.736 1.832.168 2.6-1.536 3.766l-3.029-4.658-4.561.933-3.465-4-.551 10.295-5.485-2.282-3.163 3.934c-1.046-.412-2.928-1.366-3.078-1.178-1.859 2.328-7.325-.229-7.507 4.42 0 .117-3.236.685-3.935.076-2.063-1.8-4.193-1.093-6.341-1.039l-1.131 2.537-1.828-1.64-1.2 2.659-5.767-.012c.1 1.307-.223 2.753.368 3.777 1.072 1.859 2.768 2.9 5.241.045l.175 5.538c-3.964 1.913-7.245-.53-10.028-1.664-2.44-.994-3.626-4.558-5.257-6.835.659-1.951 4.092-1.136 3.653-3.641l2.659.958 4.1-6.184c-4.172.643-5.8.1-6.563-2.042-.124-.347.232-.83.367-1.251a8.783 8.783 0 0 0 1.619.746c.319.08.958-.082 1.06-.292a4.48 4.48 0 0 0 .131-1.54l-7.938-2.114 1.328 3.6c-.895.68-3.431-.148-2.81 2.084.166.594 1.405.954 2.333 1.535.338 4.01-4.419 2.968-6.645 4.717a9.051 9.051 0 0 1-.73-.841c-1.024-1.481 2.5-4.5-2.014-4.8-1.406-.094.183-4.816-3.231-1.714-.192-.4-.633-.877-.521-1.182.2-.547.648-1.318 1.146-1.422 2.75-.578 5.546-.982 10.07-1.738l-7.212-1.439c1.922-.618 3.569-.791 3.658-1.234.625-3.119 3.369 2.92 3.459-.646.039-1.532-2.266-2.145-5.17-1.925a44.808 44.808 0 0 1-5.476-.252l.351-6.565c-2.8 1.438-2.8 1.438-1.689 3.267-2.264.593-4.32.711-6.354-.548a4.924 4.924 0 0 0-1.977-.767c-3.886-.4-3.79-.381-4.043-2.76s-.733-4.767-1.153-7.4c-4.316 2.895-3.19 6.875-3.78 11.008l-5.807-3.211c.355-1.954 3.756-.49 3.171-3.072-.438-1.935 1.1-4.145-1.245-5.842a4.007 4.007 0 0 0-4.8-.236 12.706 12.706 0 0 1-8.475 1.7c-.826-.146-1.84.759-2.709.669-2.217-.228-3.99 3.615-6.458.5a.868.868 0 0 0-.51-.137c-1.5 3.088-5.683 1.462-7.917 3.751l-.832-2.705c-3.914 1.913-7.24 1.094-10.633-1.746l1.2 2.722c.5 1.194.157 1.629-1.146 2.516a23.784 23.784 0 0 0-5.645 4.739c-1.395 1.779-1.1 3.467-1.235 5.217-.08 1.066 2.222 1.762 4.568 1.352l-2.422 6.423-5.372-.287-.267 4.987c-3.722 1.525-8.884.51-10.187 5.3-.082.3-1.314.337-2.012.5l-3.919-2.144-1.5-.3-4.477-.582-.667 4.174-3.895-3.621c-2.959 3.039-8.789-.833-10.83 5.042l-4.049-3.8-5.576 1.306-.895 3.924-17.774-2.688a7.342 7.342 0 0 1-2.457-1.369c-.8-.517-1.517-1.151-2.334-1.646-1-.605-2.064-1.118-2.985-1.61-5.5.651-1.6 6.656-5.989 8.014-2.913-1.542-.092-4.895-2.9-6.818-1.687.147-3.183 4.692-6.012.958-2.145 1.248-3.833 3.942-7.144 1.713l1.88-1.771-4.965-.7-.321 6.011c-3.97-3.743-3.97-3.743-4.585-7.233l-7.231.694c-.881.1-.86.183-2.22 3.183-.148.326-.429.755-.746.839-1.642.433-2.92-2.5-4.78-.49-.724-1.114-.564-4.127-2.954-2.238s-2.726-2.235-4.911-.224c-.919 1.37-.078 4.383-3.906 5.1-1.834.344-2.957 2.38-5.744 2.549-3.35.2-6.127 1.106-9.728-.507-3-1.345-7.124-.562-10.737-.858-1.006-.082-1.96-.881-2.954-.921-.821-.033-1.665.568-2.938 1.056l-.545-4.717-3.021.3 1.852 2.048L742 393.91c-2.877-3.011-4.621-7.409-10.287-7.53a31.287 31.287 0 0 1-2.457 4.556c-1.251 1.652-3.9-.024-4.892.806-2.583 2.165-6.737-1.648-8.737 2.095-.16.3-2.446-.021-3.438-.539-.594-.31-.594-1.564-.933-2.616-1.993 5.256-2.628 6.059-6.111 7.084 3.773-3.928 1.469-6.39-1.953-8.49l-1.161 2.629c-1.421-.869-.813-3.656-3.515-3.112-2.5.5-4.039 1.574-3.81 5.608l-2.174-4.629-8.141 2.238a6.706 6.706 0 0 1-.484-.991c-.335-1-.621-2-.925-3.006l-3.275 2.192-.731-3.807c-4.059-.164-4.3 2.433-4.738 5.306l-5.245-2.825c-1.166 2.443-4.236 4.637-.256 7.764-3.6-2.136-3.6-2.136-3.9-7.124-.622.828-.939 1.186-1.176 1.585a14.42 14.42 0 0 0-.634 1.412l-8.313-4.227-.569 10.637-4.86-.26 1.275-3.386-3.634-1.957-4.736 5.4c-.33-2.91-1.99-3.688-4.951-3.057l-.829 3.758c-2.872-.465 1.175-4.71-3.344-4.1l-2.75 6.854c-3.4-.616-1.457-4.425-4.655-4.56-3.651-.154-5.621-5.08-10.816-2.659l5.067 1.443-6.707 6.678.311-5.8c-1.023-.214-1.556-.487-1.974-.386-3.232.782-3.256.789-3.352-1.646-.087-2.229-.623-2.713-3.224-2.7-.211-.006-.412.725-.617 1.6-.03.25-.062.023-.093-.2l-5.871-1.451q-.378 1.8-.759 3.605l-.825-.06-.482-4.034c-1.844 1.3-5.145-1.115-5.9 1.854-.6 2.348-1 5.117 3.043 6.372l3.75-2.582 1.814 1.524.867-4.041a14.356 14.356 0 0 0 4.455-.998zm642.678-88.717l-3.99-3.468c-1.124 1.767.174 3.352 1.953 4.817a9.2 9.2 0 0 1 2.371-1.255l.111 2.5 10.175.545-4.045-1.934 2.21-2.036c-1.585.1-3.159 0-3.214.223-1.048 4.275-3.284 1.5-5.571.608zM455.882 28.521l3.738 7.2c.4-2.22.167-4.289 1.166-5.558 1.019-1.293.67-1.692-.222-2.56-1.021-.992-1.991-1.265-3.161-.291a2.177 2.177 0 0 0-1.026 2.183c-5.051-.8-3.869 1.71-3.555 4.852a14.666 14.666 0 0 0 3.06-5.826zm786.218 108.42l-4-3.17c3.116-2.613-.509-2.5-1.674-3.488a23.207 23.207 0 0 1-2.541-3.091c-.789 2.288-1.42 4.388-2.292 6.4-.163.375-1.381.662-1.949.5a1.723 1.723 0 0 1-.914-1.515 9.144 9.144 0 0 1 1.555-2.334l-7.354-.394-1.81 3.469c1.16.667 3.262.3 2.723 2.529-.486 2.021-.389 4.018 2.316 4.919l2.962-5.21c1.126 1.44 1.978.94 3.445.323 1.371-.576 3.365.041 4.925.125l.465 3.914zM174.835 89.424l-4.526-2.2-3.846 4.341c-.2.232-.159.628-.326 1.388l4.54-1.237 1.782 5.4 3.893.208-1.517-7.9zm1048.482 181.758l-1.691-6.748c-3.636 2.007-5.707 4.1-5.069 7.531a.937.937 0 0 0 .472.549l6.288-1.332zm-69.569-193.533c5.227 1.654 5.153-2.029 7.112-4.509l-6.851-.367-.261 4.876zM377.759 404.71c3.876-1.247 7.27-2.12 10.8-1.427.959-2.331-.34-3.791-1.706-2.75-2.313 1.762-3.469.789-5.089-.441-.263-.2-.942.052-1.417.094l-2.588 4.524zm896.089-214.643a38.918 38.918 0 0 0-.2 4.3c.137 1.322.15 1.276-1.393 3.1a1.773 1.773 0 0 0-.146 1.806c.345.427 1.741.793 1.916.6 1.679-1.815 3.2-3.752 4.819-5.724l-4.996-4.082zM435.36 30.436c-1.891-5.023-1.891-5.023-5.928-4.591.433 4.772.72 4.994 5.928 4.591zM199.972 387.564l-6.705 2.067 4.278 4.307 3.856-2.964-1.429-3.41zm276.91-349.47c-3 3.616-6.476.885-9.07 2.265-.8 1.722-.142 2.536 1.908 2.451 1.208-.05 3.208.225 3.485-.276 1.409-2.539 2.256 1.494 3.437.043l.24-4.483zM153.007 366.518c-1.4-1.722-2.653-2.73-3.066-3.959-.257-.766.754-1.87 1.2-2.821l-.9-.576-3.79 2.447 2.228 4.677zm1088.812-69.942l-4.575-4.39a39.4 39.4 0 0 0-.232 6.312c.1.843 1.355 1.589 2.159 2.456l2.648-4.378zM158.445 341.7l.307-5.735-5.188.014c1.65 2.382.968 5.255 4.881 5.721zm481.872 48.992c-.036.682-.1 1.365-.105 2.047-.021 1.732 2.289 1.7 2.321 1.338.312-3.494 3.795-1.859 5.605-2.864-2.572-2.25-5.144-2.331-7.821-.521zM255.3 385.617l-2.823 8.758c-.128.439.347 1.028.365 1.076l3.759-2.215-1.301-7.619zm-84.3.309l-2.121 5.383 3.623 2.276c1.059-3.122 1.51-5.585-1.502-7.659zM792.928 8.854l-3.517-3.943c-1.682 3.064-1.871 4.051-1.083 6.288.1.272.619.427.935.63zm-362.592 5.8l7.333 2.47c.36.109.887-.248 1.337-.39-.21-.315-.371-.858-.638-.908-2.26-.416-3.527-1.528-3.6-3.689-.007-.208-.62-.406-.98-.626zm43.486 22.4l4.139.22-1.254-7.362-2.885 7.136zM287.278 401.768c-2.554 2.638-.96 4.55 1.151 5.815.65.39 2.56-.958 5.03-1.979-3.624-.633-6.359-.537-6.181-3.836zM270.66 46.607a19.952 19.952 0 0 0 2.049-3.789c.169-.6-.58-1.423-.915-2.145a8.557 8.557 0 0 0-2.022 1.237 13.261 13.261 0 0 0-1.451 2.343zm217.2 7.036l1.981-1.608-3.4-6.767c-1.721 3.209.135 5.752 1.421 8.375zm670.3 12.4c1.306-5.039 1.119-5.226-3.376-5.883l3.38 5.886zm77.267 49.077l.25-4.67c-4.727 1.8-5.343 2.5-3.762 4.094l1.644-1.244c.156.137.332.28.492.437l1.38 1.386zM56.247 195c-1.646-3.369-2.2-3.391-6.831-.366l6.831.366zm1175.626 104.2l2.738 8.353.438-8.183-3.176-.17zM61.609 267.363l5.51-2.528c.266-.13.334-.586.576-1.048l-5.877-.314-.209 3.89zm915.108 95.108l3.079-1.909c-1.832-1.212.678-3.518-1.466-4.6-.254-.127-.833.284-1.289.456l-.324 6.053zm-83.858.015c-.667-3.021-1.641-4.682-5.077-3.926.501 2.427 1.307 4.07 5.077 3.926zm-575.333 42.519l1.045 4.366c.45 2.149 1.659 1.791 3.412.627-1.248-1.678-.621-4.551-4.457-4.993zM86.092 174.738c-.977 4.231-.977 4.231 2.678 7.2l-2.678-7.2zm-5.836-29.758l-4.156-1.873a4.106 4.106 0 0 0 1.639 2.69 34.159 34.159 0 0 1 2.3 3.265l.217-4.082zM178.628 92l1.7 3.265c1.314-1.661 4.053-2.3 2.046-4.08-.554-.485-2.797.586-3.746.815zm3.381-10.328a12.519 12.519 0 0 0-2.107-2.033 2.636 2.636 0 0 0-1.9-.049 4.286 4.286 0 0 0-.167 2.273 11.6 11.6 0 0 0 .848 2.2l3.326-2.389zm-60.827 266.89c.923-2.492 1.519-3.387 1.492-4.273a2.32 2.32 0 0 0-1.4-1.754c-2.051-.3-1.6 1.306-1.6 2.3.002.685.519 1.365 1.508 3.729zM1218.2 112.377c1.014-1.254 3.7-1.9 1.768-3.678-.531-.489-2.787.554-4.75 1.009zM144.3 335.284c-3.4 1-1.005 3.116-1.022 4.769 0 .2.617.405.959.615l1.916-1.658zM498.127 35.309c-.83-1.079-1.193-2.1-1.824-2.265-1.738-.462-2.187.679-1.953 1.951a8.822 8.822 0 0 0 1.049 2.15zM59.869 261.545c-4.427 2.289.041 4.859-.384 7.182l.384-7.182zM783.606 6.863l-2.463 1.65c1.46 1.171 1.419 2.274-.146 3.307l2.235 2.017.374-6.974zM54.283 133.941l-2.214-4.054-.357 6.676 2.571-2.622zm1165.339-28.46l.691 1.439c.667-.426 1.81-.776 1.9-1.293.206-1.133.965-3.046-1.567-2.869-3.47.242 1.514 1.869-1.024 2.723zM488.666 34.542l-.977-3.607-1.018.433.119 6.1zm15.013-2.81l-1.964-4.192-2.4 3.957 4.364.235zm146.505-3.921c.222-1.836.519-2.547.32-3.123a4.7 4.7 0 0 0-1.421-1.81 1.787 1.787 0 0 0-1.217.343 5.825 5.825 0 0 0 .333 2.346c.255.598.907 1.061 1.985 2.244zm186.175-15.256l-2.888-5.045.16 7.259 2.728-2.214zm193.518 369.5l-2.866-5.224.156 7.424zM912.931 361.95c-2.049-3.728-4.243-1.065-7.856-.419zM1242.043 316a7.773 7.773 0 0 1-1.243-2.052 16.756 16.756 0 0 1-.167-3.176c-.846 2.028-3.322 4.388 1.41 5.228zm51.857-175.55l.276-5.151 2.09 4.546.878-4.6-4.454-.238-.08-5.418.944-.228 1.1 2.809 7.194-.58-.487 9.116 4.494.24c.716-3.191.844-6.214-1.171-8.973 3.537-1.76 4.975-.435 5.541 2 1.1-.285 2.5-1.095 3.262-.743 1.062.493 1.56 1.579 2.883.288.288-.28 1.645.338 2.51.543-.458.668-.751 1.542-1.4 1.967-2.254 1.467-2.5 1.754-.517 2.723 1.92.936 2.006 4.382 5.345 3.205.243.6.776 1.276.637 1.793-.113.421-.995.816-1.605.931a14.142 14.142 0 0 1-2.807-.109l-.428 3.634c1.226.712 3.909-2.159 3.028 1.45l-7.855 3.153.969-4.278c.244-1.25 1.043-3.262.492-3.652-3.475-2.461-2.277-5.834-3.408-9l-.827 6.264c-2.555 1.18-5.243 2.275-8.368 1.552-.708-.164-2-.305-2.022-.54-.499-4.324-4.324-1.875-6.214-2.704zM980.091 369.733l-7.083 3.552 6.734 2.551 1.792-3.14 4.069 6.688-4.616-1.876-2.062 3.288 2.453 2.47-4.421 3.77.28-5.222c-3.36-1.857-2.978.774-4.316 2.3l-1.506-2.967a41.747 41.747 0 0 1-4.456.892 30.641 30.641 0 0 1-3.9-.174c.5 1.138-.1 3.353-1.2 4.439l-.591-2.9-1.134.743 1.984-3.743 5.472.293.2-.875-2.329-.88c.01.151-.372-5.481-.372-5.481 2.236-3.039-4.521-2.272-2.348-5.689l2.83 1.05c1.758.559 3.842 2.222 4.562-1.061.086-.4 1.464-.985 1.611-.863 2.54 2.115 6.744-1.581 8.347 2.835zm-845.527 15.35c.256-.694.708-2.165 1.415-2.268 1.15-.165 3.072-.8 3.394 1.55.319 2.32 2.045 1.637 3.145.581a63.694 63.694 0 0 0 4.348-5.185l.537 4.631 4.192.934c.667 2.53-1.679 1.883-2.544 2.647-.893.786-.877 2.414-1.342 3.943l-2.041-3.644c-.964.719-1.766 1.011-1.932 1.488-1.454 4.191-1.423 4.139-5.875 4.319-1.418.057-2.8.607-4.218.806-1.195.168-2.423.154-3.472.211-1.88-2.481.845-3.933.916-5.7s-2.431-3.5-.151-5.764a15.466 15.466 0 0 0 3.628 1.456c-2.3 4.2-2.3 4.2.821 7.07 1.784-2.229 1.694-4.458-.821-7.075zm1124.527-268.202c1.255 1.542 1.81 1.15 2.426.713 1.57 2.779.149 4.34-3.065 5.793l-3.528-4.566c-1.818 1.26-3.536 3.759-6.73 1.752 1.31-2.385 4.012-4.328 2.845-8.036l-4.013 1.233.271-5.076 7.088.379 1 2.966 3-3.854 2.645 1.422c-.05.935.042 1.249-.09 1.387-2.579 2.689-2.585 2.684-1.846 5.887a16.54 16.54 0 0 0-5.93-4.556l.1 5.7c2.036-1.225 3.236-1.941 5.827-1.144zM13.01 247.65l-5.777 4.529c2.846 2 1.738 4.161 1.771 6.133-3.96 2.461-5.629-1.245-8.093-2.639A2.869 2.869 0 0 1 0 253.428c-.009-2.31.2-4.619.34-7.248l7.56-1.711.261 4.182 4.849-1.001zm1221.018 33.533l4.235-.076c1.016-.023 1.433 2.425 2.756.688.789-1.037 1.925-2.758 1.489-3.488-1.3-2.171-1.566-4.193-.451-7.328a23.877 23.877 0 0 0 2.381 3.975c1.094 1.191 1.639 2.088-.123 3.036l3.324 1.445-3.25 1.093-.778 4.661c-1.543 1.31-6.222-1.962-5.82 3.063l-3.763-7.069zM6.625 213.334l2.943 10.045c1.2.781 2.963-1.661 2.633-.019-.517 2.566.04 6.26-4.958 7.428 1.891-4.62-2.788-7.883-2.425-12.265C3.4 218 1.846 217.48.4 216.794c-.148-.071.292-1.172.518-2.013l1.782 1.557 3.925-3.004zM414.743 8.887c.112-1.556-.24-3.546 2.945-2.336l.4 3.8.735.084 1.268-4.35c1.022 3.45 6.081 4.508 5.045 8.575-1.591-.429-3.184-1.3-4.552-1.08-1 .157-1.575 1.877-2.572 2.657a19.9 19.9 0 0 1-3.751 1.66l.257-4.795c2.148-.229 1.964-1.277 1.108-2.6-.336-.514-.591-1.074-.883-1.615zm850.468 282.896c3.463-.142 6.226-.958 8.188-.151 2.256.929 3.806 3.292 5.869 5.227-4.055 1.282-7.957-1.114-11.5.791-.329.177-1.851-.61-1.975-1.113a32.315 32.315 0 0 1-.582-4.754zM35.964 202.743l-.759-2.473c-2.441.865-4.886 1.285-7 .317-2.024-1.855 2.4-2.45.34-4.211-.354-.3.62-1.655.36-2.333-.31-.808-1.288-1.413-2.319-2.451l4.589-2.662.007 7.459 5.858-.357-.358 6.7zM718.087 14.352l3.24-.816.293-5.473c.8.768 1.269 1.008 1.35 1.326.336 1.312-1.277 3.489 2 3.442a.738.738 0 0 1 .555.392 15.234 15.234 0 0 0 .964 3.77c.374.667 1.672.916 4.182 2.158-3.85.428-5.133 2.859-7.994.726-1.067-.8-2.069-1.167-1.629-2.376.963-2.644-2.509-1.577-2.961-3.149zM186.393 57.227a47.344 47.344 0 0 1-.408 6.225c-.228 1.213-1.191 2.3-1.892 3.571-2.646-1.641-3.886-3.151-.311-5.977l-7 1.3c1.479-2.731 5.508-3.17 6.729-6.134q1.437.509 2.882 1.015zM1253.48 288.68l5.1 1.58 1.375-2.357c1.8 2.052 1.792 2.046-.176 4.276-.225.255-.493.837-.391.921 3.066 2.533-1.393 3.706-1.394 5.795.119-3.495-2.11-6.217-4.514-10.215zM30.634 124.654l4.813-1.394-4.842 5.784-2.621-2.64-3.6 4.248c-.279-1-.759-1.714-.556-2.184.52-1.195 1.359-3.26 2.044-3.245 3.776.085 2.322-2.885 3.868-4.879l.894 4.31zm1240.831-12.548l.975-2.172c2.075 2.283 4.186 1.1 5.577.03l5.478 5.477-3.647 1.444-2.907-3.957-5.476-.822z"/><path d="M479.8 15.186c1.47 3.4-.174 6.08-4.742 6.686-2.456.325-1.781 1.628-2 2.812-3.242-1.249-.609-3.461-1.346-5.62l3.293 1.669 4.795-5.547zM1284 131.464l-3.3 2.641c-1.687-2.189-5.378-3.667-2.78-7.214.7.067 1.4-.058 1.673.193l4.407 4.38zM961.344 373.507l1.542 5.026c-2.092 1.727-4.538 1.263-7-.208.684-2.646 2.814-3.995 5.458-4.818zm331.612-76.001l-6.72 1.643c-3.113-1.277-2.694-3.927-2.023-7.077l3.568 4.222c2.467-2.383 3.245 1.522 5.175 1.212zm37.737-150.939l-4.1-.219c-.705-2.606-2.234-5.29.684-8.461zM17.231 211.761c1.539 1.448-2.247 5.794 3.561 5.43l-6.392 1.846c.154-3.314-.939-6.068 2.831-7.276zm25.76 62.031c-.841-1.566-2.095-3.07-1.77-3.444 1.212-1.393.885-2.48.146-3.846-.154-.284.574-1.324 1.044-1.415a2.34 2.34 0 0 1 1.914.689c1.746 2.705 1.404 5.277-1.334 8.016zm1208.209-5.85l5.927.317c-.374.54-.579 1.1-.789 1.1a38.643 38.643 0 0 1-4.566-.222c-2.589-.315-3.836-1.626-3.66-4.056.043-.59 1.03-1.115 1.584-1.67a9.1 9.1 0 0 1 1.4 1.873 9.383 9.383 0 0 1 .104 2.658zM41.62 225.986c-2.11 1.787-3.673 4.313-6.839 5.047-.502-3.596-.502-3.596 6.839-5.047zM1087.314 26.439c-5.172-2.7.456-5.317.376-8.22.685 1.457 1.944 2.939 1.887 4.365-.053 1.346-1.491 2.633-2.263 3.855zm206.318 113.981c-.26.984.551 2.388-1.3 2.747q-2.313.45-4.623.912-.183-1.293-.365-2.587a8.99 8.99 0 0 1 6.288-1.072zM949.657 380.989l-.83-2.5-7.126-.849 7.23-1.895 3.38 3.575zm284.281-136.608l4 .214-.312 5.824c-1.149-.682-2.326-1-2.646-1.654a20.566 20.566 0 0 1-1.042-4.384zM414.743 8.887l.883 1.618c.856 1.319 1.041 2.365-1.108 2.595a3.559 3.559 0 0 1-.757-.048c-1.3-.368-3.277.7-3.805-1.218-.637-2.309 1.974-1.316 2.918-2.063a9.2 9.2 0 0 1 1.869-.884zM176.747 63.492l-7.813-.058c.068-1.271-.131-2.424.287-3.342a2.653 2.653 0 0 1 2.27-.69c.954.715 1.358 2.062 2.34 2.7.7.461 1.985.189 3.009.243l-.093 1.147zm1087.435 244.26c-2.869-6.915-2.869-6.915.521-9.73l-.521 9.73zm71.802-168.423l2.4-3.556c2.13.114 4.261 2.448 3.483 3.733a1.572 1.572 0 0 1-1.038.269c-1.598-2.742-2.844 1.852-4.845-.446zM1278.189 298.2l2.11 7.469c-1.039-.056-2.173.184-2.682-.221-.605-.482-.447-1.71-1.027-2.271-.9-.875-.825-1.251.12-2.016.624-.505.778-1.485 1.479-2.961zm21.896-181.754c-3.455.283-6.272.856-7.863-1.977-.294-.526.391-1.494.623-2.26a9.982 9.982 0 0 1 1.937.585c-.417 3.483 3.233 1.837 5.303 3.652zM400.41 15.146c-2.457 2.39-3.948-1-7.479.26l5.47-4.554zM677.865 392.02l5.428 3.018-5.722 2.473.294-5.491zm-542.52-22.672c-3.109 2.117-3.109 2.117-5.94-.237 3.05-2.411 3.05-2.411 5.94.237zm956.361-358.797l5.146 3.033-4.6 2.838-.546-5.871z"/><path d="M479.835 14.132l7.6.407-2.42 3.992-.9-2.871-4.29-.229zM233.7 41.285c-2.787-1.024-3.1-2.892-2.467-4.9.13-.413 1.551-.481 2.773-.816l-.306 5.716zm1033.281 68.423l-.323 6.041c-1.247-1.738-2.353-2.656-2.55-3.7-.279-1.486-.324-3.464 2.873-2.341zm20.046 32.825l-2.68-5.618 3.17-3.545-.49 9.163zm-22.648 6.289l-1.917-3.923 2.126-1.726c2.473 2.742 2.473 2.742-.209 5.649zm-12.361-3.022l3.692.528a6.216 6.216 0 0 0 1.613-.282l-.111 2.069-7.237-.387-.479-.666 3.645-.744q-.561-.262-1.123-.518zm6.638 10.375c-3.968-2.7-3.959-2.706-.13-6.958l.13 6.958zM1239.564 265.8l2.128 2.142-3.148 1.088 1.664 1.979c-1.169-.008-2.542.265-2.752-.064-1.439-2.245-.381-3.91 2.108-5.145zm64.514 32.241l-5.534 1.993c-2.363-2.532.539-3.1 1.4-4.173l4.134 2.18zM34.683 269.706l-6.838 1.576c-1.133-1.317-1.535-2.572.875-2.74a48.742 48.742 0 0 1 5.9.267l.063.897zm13.259 3.986c2.353 3.1 2.353 3.1-.375 5.629L45.7 275.59zm1202.619 6.188c.662 2.617 1.159 3.553 1.028 4.406a2.328 2.328 0 0 1-1.576 1.595c-2.071.078-1.455-1.47-1.347-2.46.075-.678.664-1.307 1.895-3.541zM194.374 404.111c-3.027 1.381-5.9 1.915-8.208-2.307a26.99 26.99 0 0 0 4.285 2.042 20.973 20.973 0 0 0 3.923.265zM69.24 178.92l3.606.882-3.456 5.861-.15-6.743zm196.695 226.423a13.076 13.076 0 0 0-1.721 2.524 6.018 6.018 0 0 1-1.23 2.958l-.252-2.711c.431-.094-1.26-3.865 3.203-2.771zm-141.042-15.836l-.192 3.594-3.817-.2q1.816-1.539 4.009-3.394zm5.751-7.359c-.612-3.18 2.247-3.552 4.033-5.821.854 4.047-2.884 4.162-4.033 5.821zm55.749-324.921c.438-2.793.438-2.793 4.808-2.559-.438 2.794-.438 2.794-4.808 2.559zm32.626-16.409l-1.454-5.632c.464.024 1.851-.2 2.078.166a10.244 10.244 0 0 1 1.348 3.8c.058.379-1.015.89-1.972 1.666zm851.771 336.707l-4.647.074a13.115 13.115 0 0 1 .314-3.607c.11-.3 1.652-.143 2.538-.195l-1.182 2.226 2.989.407q-.007.546-.012 1.095zM80.846 297.8c-1.055.678-1.7 1.441-2.373 1.463-2.058.064-1.573-1.474-1.358-2.443.143-.641 1.013-1.143 1.557-1.708l2.174 2.688zM477.171 12.688l.34-6.362c2.889 3.244 2.889 3.244-.34 6.362zm697.403 32.759c4.362-2.929 4.362-2.929 7.952-.035zm-7.136-5.577l-2.756 6.821-2.59-2.4 5.346-4.421zM36.8 232.88l-.243 1.987-7.34-.394-.089-.657zM1106.452 30.41l-2.891-.161c-1.657-.147-2.219-.6-.617-1.731.309-.217.375-.715.553-1.083l2.836-.845.181 2.512c.02.434-.039.871-.062 1.308zM43.538 232.624a6.04 6.04 0 0 1 .488 1.74c-.005.375-.451 1.036-.756 1.06-1.779.145-1.857-.894-1.789-2.16s.253-2.28 2.014-1.974c.392.068.707.524 1.058.8zM1257.7 276.66c-.489-.493-.978-.786-1.134-1.183a16.531 16.531 0 0 1-.786-2.87 2.983 2.983 0 0 1 1.271-.33c2.038.116 1.367 1.523 1.33 2.519a6.7 6.7 0 0 1-.681 1.864zM57.908 179.717c.288.923.456 1.157.4 1.324-.384 1.089.846 2.963-1.68 3.01a1.664 1.664 0 0 1-1.237-.511c-.979-1.7.717-2.3 1.684-3.2.164-.153.365-.276.833-.623zM42.4 161.352l2.71-2.2.157 7.425zM1275.8 212.7l2.744.147-.009 5.441-.713.051zm10.571-28.783l-.435 8.125a8.106 8.106 0 0 1 .435-8.125zm-12.187-25.471c-2.828-1.066-4.575-2.74-2.131-5.266zm68.102-12.033l-1.982-4.252c.665-.182 1.566-.71 1.955-.489 1.953 1.11 1.161 2.571.027 4.741zm-60.601-5.44l-1.392-5.045c-.036.019.417-.417.775-.358.657.109 1.773.486 1.8.8a37.324 37.324 0 0 1-.16 4.614l-1.023-.011z"/><path d="M191.378 54.906l.226-4.218c.545.192 1.041.223 1.183.44.582.894 1.056 1.844 1.569 2.773l-2.978 1.005zm1102.531 51.987c-2.321.543-5.178 2.515-6.836-2.228a21.905 21.905 0 0 0 3.358 1.743 25.474 25.474 0 0 0 3.478.485zM713.107 8.133a21.409 21.409 0 0 1-3.176 2.2 3.221 3.221 0 0 1-2-.122c-.274-.091-.583-.959-.435-1.1a4.93 4.93 0 0 1 1.955-1.3c.63-.183 1.427.089 3.656.322zm389.238 19.247q.185-3.454.37-6.909a6.051 6.051 0 0 1-.37 6.909zM926.7 372.916l-1.86-3.656c.658-.2 1.458-.724 1.951-.545 2.709.99-.066 2.636-.091 4.201zm-814.677-17.429l2.134 4.193c-.658.2-1.522.746-1.939.54-2.092-1.033-1.166-2.52-.195-4.733zM129.963 377c-.075.311-.052.814-.246.9-.407.169-1.226.291-1.35.122a2.515 2.515 0 0 1 .222-4.145c.141-.155.938.059 1.329.267.159.085.124.625.032.919a17.68 17.68 0 0 1-.7 1.678zm-48.026-62.217l-5.581-.3-.131-3.646 1.37.192c-.395 2.071 1.866 2.339 4.342 3.754zm-4.486-12.777l2.349 2.364-5.429 3.153 3.08-5.517zm950.115 92.027q-.174 3.265-.35 6.533c-1.664-2.2-.852-4.405.35-6.533z"/></svg>