<?xml version="1.0" encoding="utf-8"?>
<!-- Generator: Adobe Illustrator 26.1.0, SVG Export Plug-In . SVG Version: 6.00 Build 0)  -->
<svg version="1.1" id="Layer_1" xmlns="http://www.w3.org/2000/svg" xmlns:xlink="http://www.w3.org/1999/xlink" x="0px" y="0px"
	 viewBox="0 0 1649.9 1087.1" style="enable-background:new 0 0 1649.9 1087.1;" xml:space="preserve">
<style type="text/css">
	.st0{fill:#FFBF00;}
</style>
<g>
	<path class="st0" d="M1478.5,14.8h-126.8c-16.3,0-26,6.8-29.3,18.6L1196.7,430L1070.9,33.4c-3.3-11.9-13-18.6-29.3-18.6H936.6
		c-19.5,0-28.2,8.5-22.8,23.7l34.3,97.6L847.7,430L721.9,33.4c-3.3-11.9-13-18.6-29.3-18.6h-123c17.4,0,27.1,7.6,27.1,21.2v550.8
		c0,13.5-9.7,21.2-27.1,21.2h336.5c15.2,0,26-5.1,30.4-17.8l85.7-243.3l85.6,243.3c4.3,12.7,15.2,17.8,30.3,17.8h138.7
		c15.2,0,26-5.1,30.4-17.8l194-551.7C1506.6,23.2,1498,14.8,1478.5,14.8z M454.7,594.4l-259-316.9v309.3c0,13.5-9.7,21.2-27.1,21.2
		h319.8C474.3,608,462.3,603.7,454.7,594.4z M130.7,14.8c14.1,0,26,4.2,33.6,13.5l259.1,317V35.9c0-13.5,9.7-21.2,27.1-21.2
		C450.4,14.8,130.7,14.8,130.7,14.8z"/>
</g>
<g>
	<path class="st0" d="M137.2,656.6v18.8c8.6-7.5,17.1-13.1,25.4-16.8c8.3-3.7,16.3-5.6,24.2-5.6c10.5,0,19.4,2.9,26.6,8.8
		c5.5,4.4,9.1,9.9,11,16.4c1.9,6.5,2.8,17.2,2.8,32l-0.2,62.6l0.3,31.5H171l0.4-37.5l0.3-27.6l-0.1-41.6c-0.1-9.6-0.2-15.4-0.3-17.2
		s-0.5-3.5-1-4.9c-1.2-2.9-3.7-4.3-7.6-4.3c-3.6,0-7.5,1.3-11.8,3.8c-4.2,2.5-8.7,6.3-13.6,11.3l-0.1,5.5l-0.2,38l-0.2,29.1
		l0.3,39.7l0.1,5.8H80.4l0.3-53l0.3-35l-0.3-30.3l-0.3-29.3H137.2z"/>
	<path class="st0" d="M306.9,653c11.9,0,23.2,4,33.8,12c9.8,7.4,17.3,17.5,22.5,30.3c4.6,11.2,6.9,23.2,6.9,35.8
		c0,8.6-1.4,17.3-4.1,26.1c-2.7,8.7-6.4,16.5-11,23.2c-6.5,9.3-14.5,16.3-23.8,20.9c-7.7,3.9-15.7,5.8-24.1,5.8
		c-14,0-26.5-5-37.7-15.1c-8.7-7.7-15.3-17.7-19.8-29.8c-3.8-10.3-5.7-21.1-5.7-32.6c0-22.3,6.6-40.9,19.9-55.6
		C276.4,660.2,290.8,653.2,306.9,653z M303.7,661.6l-0.3,136.3c2.3,0.2,3.9,0.3,4.8,0.3c10.3,0,20.1-3.5,29.5-10.6
		c9-6.9,15.8-16,20.3-27.3c3.5-9,5.3-18.9,5.3-29.7c0-21.7-6.6-39.4-19.7-52.9c-10.6-10.9-22.2-16.4-34.7-16.4
		C307.8,661.3,306.1,661.4,303.7,661.6z"/>
	<path class="st0" d="M533.4,730.4c8-20.2,15.8-42.7,23.5-67.5c1.8-5.9,3.1-9.5,3.8-10.8c0.7-1.3,1.7-1.9,3-1.9
		c1.4,0,2.6,0.5,3.7,1.6c1,1,1.5,2.2,1.5,3.6c0,1.3-0.4,3.1-1.2,5.4c-0.8,2.3-3.5,9.8-8.2,22.4l-14.1,37.4l-12.8,33.8l-10.5,28.2
		l-11.1,30.9l-41.9-87.9c-2.8,5.7-6.5,13.7-11.2,24.2l-28.1,63.7l-20.7-48.5l-15.9-36.8l-13.6-31.9l-17.2-39.9h62.9l31.8,75.9
		c6.1-12.5,10.4-21.5,12.8-26.8c2.4-5.3,10.9-25.1,25.6-59.3L533.4,730.4z"/>
	<path class="st0" d="M627.5,653c11.9,0,23.2,4,33.8,12c9.8,7.4,17.3,17.5,22.5,30.3c4.6,11.2,6.9,23.2,6.9,35.8
		c0,8.6-1.4,17.3-4.1,26.1c-2.7,8.7-6.4,16.5-11,23.2c-6.5,9.3-14.5,16.3-23.8,20.9c-7.7,3.9-15.7,5.8-24.1,5.8
		c-14,0-26.5-5-37.7-15.1c-8.7-7.7-15.3-17.7-19.8-29.8c-3.8-10.3-5.7-21.1-5.7-32.6c0-22.3,6.6-40.9,19.9-55.6
		C596.9,660.2,611.3,653.2,627.5,653z M624.2,661.6l-0.3,136.3c2.3,0.2,3.9,0.3,4.8,0.3c10.3,0,20.1-3.5,29.5-10.6
		c9-6.9,15.8-16,20.3-27.3c3.5-9,5.3-18.9,5.3-29.7c0-21.7-6.6-39.4-19.7-52.9c-10.6-10.9-22.2-16.4-34.7-16.4
		C628.3,661.3,626.6,661.4,624.2,661.6z"/>
	<path class="st0" d="M760.1,685.9v90.2l-0.1,8.6c0,5.6,0.6,9.3,1.7,11.1s3.4,2.8,6.9,2.8c8.7,0,17.3-3.3,25.7-9.8
		c8.4-6.5,15.3-15.3,20.6-26.3c1.6-3.3,3.2-5,4.8-5c1.1,0,2.1,0.6,3,1.8c0.9,1.2,1.4,2.5,1.4,3.8c0,3.2-2.2,7.8-6.4,13.7
		c-4.3,5.9-9.3,11.2-15,15.9c-11.6,9.5-24,14.2-37.2,14.2c-18.1,0-33.1-6.9-44.9-20.5c-13.4-15.4-20.2-34.3-20.2-56.6
		c0-23.1,7.1-42.2,21.3-57.5c11.9-13,26.6-19.4,44-19.4c13.9,0,26,4,36.5,12c4.4,3.4,8.1,7.1,10.9,11c2.8,3.9,4.2,7.2,4.2,9.9
		c0,1.3-0.4,2.5-1.2,3.5s-1.8,1.4-3,1.4c-1.5,0-3.5-2.2-5.9-6.5c-3.4-6-8.7-11.3-16.1-15.7c-7.3-4.5-14.2-6.7-20.7-6.7
		c-4.4,0-7.2,1.5-8.4,4.5C760.7,669.3,760.1,675.8,760.1,685.9z"/>
	<path class="st0" d="M970.5,656.6l-62.9,116.9l-9.2,17.8l-1.8,3.7h14.1c15.4,0,30.8-0.9,46.2-2.6c2.1-0.2,3.7-0.3,4.9-0.3
		c3.7,0,5.5,2.2,5.5,6.5c0,4.2-2.4,6.4-7.3,6.4l-6.6-0.1l-58-0.7h-71.9c15-24.2,34.2-59.3,57.7-105.1l14.7-28.6l2.8-5.4l-11.8-0.1
		c-16.2,0-29.6,0.5-40.1,1.6c-2.2,0.3-4,0.4-5.3,0.4c-3.5,0-5.2-1.8-5.2-5.5c0-2.4,0.5-4.1,1.4-4.9c0.9-0.9,2.6-1.3,5-1.3l3.9,0.1
		l70.4,1.3L970.5,656.6L970.5,656.6z"/>
	<path class="st0" d="M1029,734.7v41.9c0,8.1,0.4,13.2,1.2,15.4c1.5,4.1,5.2,6.2,11,6.2c8.6,0,17.1-2.9,25.4-8.6
		c8.4-5.7,15.6-13.6,21.8-23.7c2-3.3,3.4-5.4,4.3-6.4c0.9-0.9,1.8-1.3,2.9-1.3c1.3,0,2.3,0.6,3.1,1.7s1.2,2.5,1.2,4.2
		c0,3.8-2.5,8.9-7.4,15.3c-6.5,8.2-14.6,14.9-24.2,20c-9.6,5.1-19,7.7-28.2,7.7c-15.7,0-29.6-6.4-41.7-19.3
		c-7-7.6-12.4-16.9-16.2-28c-3.3-9.7-5-19.4-5-29.2c0-9.4,1.5-18.7,4.4-28.2c3-9.4,7-17.5,12.2-24.4c6-8,13.1-14.2,21.3-18.6
		c8.1-4.3,16.5-6.5,25.3-6.5c13.7,0,26,4.9,37.1,14.7c17.3,15.3,25.9,37.5,25.7,66.6h-25.8l-33.2,0.1L1029,734.7z M1057.3,725.8
		v-39.4c-0.1-8.4-0.3-13.5-0.4-15.2c-0.1-1.7-0.7-3.2-1.5-4.6c-2.1-3.5-6.3-5.3-12.6-5.3c-6.5,0-10.6,2-12.2,6.1
		c-1,2.4-1.5,8.8-1.5,19v39.4l13.5,0.5L1057.3,725.8z"/>
	<path class="st0" d="M1118.6,779.1c1.5,0,3.4,1.4,5.7,4.1c3.7,4.3,8.9,7.9,15.7,11c6.8,3,13.2,4.6,19.1,4.6c2.7,0,4.8-0.6,6.2-1.7
		s2-2.8,2-5s-0.9-4.8-2.8-7.8c-1.9-3-6.1-8.8-12.6-17.4c-15.9-20.7-26.2-35.3-30.9-43.7c-4.7-8.4-7-16.5-7-24.2
		c0-6.8,1.6-13.2,4.8-19.4c3.2-6.2,7.7-11.4,13.5-15.7c9.5-7.2,20.5-10.8,32.8-10.8c9.1,0,18.7,2.3,28.8,7c7.9,3.7,11.9,7.7,11.9,12
		c0,1.3-0.5,2.6-1.4,3.7s-2,1.6-3.2,1.6c-1.4,0-4-1.7-7.9-5c-7.8-6.9-16.4-10.3-25.6-10.3c-3.3,0-5.7,0.6-7.4,1.9
		c-1.7,1.3-2.5,3.2-2.5,5.8c0,3.1,1.5,6.9,4.6,11.6c3.1,4.7,9.3,12.6,18.7,23.8c9.2,10.9,15,18,17.5,21.4c2.5,3.4,4.9,7.3,7.1,11.7
		c3.9,7.6,5.9,15.8,5.9,24.6c0,13.9-5.5,25.1-16.5,33.6c-9,7.1-20.1,10.7-33.2,10.7c-14.6,0-27.6-4-38.9-11.9
		c-3.3-2.4-5.6-4.4-6.8-5.9c-1.2-1.5-1.8-3.2-1.8-5C1114.3,780.9,1115.8,779.2,1118.6,779.1z"/>
	<path class="st0" d="M1286.5,656.6v18.8c8.6-7.5,17.1-13.1,25.4-16.8c8.3-3.7,16.3-5.6,24.2-5.6c10.5,0,19.4,2.9,26.6,8.8
		c5.5,4.4,9.1,9.9,11,16.4c1.9,6.5,2.8,17.2,2.8,32l-0.2,62.6l0.3,31.5h-56.3l0.4-37.5l0.3-27.6l-0.1-41.6
		c-0.1-9.6-0.2-15.4-0.3-17.2c-0.1-1.8-0.5-3.5-1-4.9c-1.2-2.9-3.7-4.3-7.6-4.3c-3.6,0-7.5,1.3-11.8,3.8c-4.2,2.5-8.7,6.3-13.6,11.3
		l-0.1,5.5l-0.2,38l-0.2,29.1l0.3,39.7l0.1,5.8h-56.6l0.3-53l0.3-35l-0.3-30.3l-0.3-29.3L1286.5,656.6L1286.5,656.6z"/>
	<path class="st0" d="M1479.6,714.1v-16.5c-0.1-11.4-0.2-18.5-0.4-21.1c-0.2-2.6-0.9-5-2-7c-2.7-5-8.9-7.6-18.7-7.6
		c-15.1,0-26.8,5.8-35,17.3c-3.3,4.7-6.1,7-8.4,7c-1.7,0-3.2-0.7-4.4-2.2s-1.9-3.1-1.9-5c0-5.7,5.5-11.5,16.5-17.6
		c10.5-5.8,24.1-8.6,40.7-8.6c27.3,0,46.6,5,57.9,15.1c4.9,4.4,8.1,9.4,9.5,14.9c1.5,5.5,2.2,15.2,2.2,29.1v53.6
		c-0.3,9.9-0.1,17.4,0.7,22.3c0.8,5,2.5,10.4,5.3,16.1h-62.1v-14.2c-6.8,5.7-13.5,10-20.2,12.8c-6.7,2.9-13.3,4.3-19.8,4.3
		c-11,0-20.8-3.9-29.4-11.7c-11.2-10.3-16.7-23.6-16.7-40c0-14.5,4.5-26.2,13.5-35.1c10.5-10.5,23.5-15.8,39.1-15.8
		c6.4,0,12,0.7,16.9,2.1C1467.7,707.9,1473.3,710.5,1479.6,714.1z M1479.6,723.9c-9.3-5.7-16.5-8.5-21.6-8.5c-4.3,0-7.1,2.1-8.4,6.2
		c-0.7,2.3-1.1,8.8-1.1,19.6v32.3c0.1,7.1,0.3,11.4,0.6,13c0.7,4.1,3.3,6.2,7.5,6.2c3.4,0,7.2-1.2,11.4-3.7c4.2-2.5,8-5.7,11.5-9.8
		L1479.6,723.9z"/>
	<path class="st0" d="M557.1,935.5c7.1-19.8,14.1-41.9,20.9-66.1c1.6-5.8,2.8-9.4,3.4-10.6c0.6-1.2,1.5-1.9,2.7-1.9
		c1.2,0,2.3,0.5,3.3,1.5c0.9,1,1.4,2.2,1.4,3.5c0,1.2-0.3,3-1,5.3c-0.7,2.3-3.1,9.6-7.3,22l-12.5,36.7L556.5,959l-9.4,27.7
		l-9.9,30.3L500,930.9c-2.5,5.6-5.8,13.4-9.9,23.7l-25,62.4l-18.5-47.5l-14.1-36l-12.1-31.2l-15.3-39.1h56l28.3,74.4
		c5.5-12.3,9.3-21.1,11.4-26.3c2.1-5.2,9.7-24.6,22.8-58.1L557.1,935.5z"/>
	<path class="st0" d="M647.1,863.1v3.8l-0.2,20.7l-0.2,32l-0.3,48.7l0.4,27.4l0.2,11.9h-50.7l0.5-48.7l0.3-43l-0.2-22.6l-0.3-25.2
		l0.1-5H647.1z M621.5,816.8c17.3,0,26,6.1,26,18.3c0,5.9-2.3,10.5-6.8,13.8c-4.6,3.3-11,5-19.3,5c-16.5,0-24.7-6.3-24.7-18.8
		C596.7,823,605,816.9,621.5,816.8z"/>
	<path class="st0" d="M724.7,816.5l-1.1,42.8l-0.1,4.1c5.7,0,10.9-0.3,15.6-0.9c0.8-0.1,1.5-0.1,2.1-0.1c2.9,0,4.3,1.8,4.3,5.4
		c0,3.3-1.5,5-4.5,5c-0.9,0-2.1-0.1-3.4-0.3c-5.2-0.5-8.9-0.8-11.1-0.8h-2.9l-0.1,25.6l0.3,51.4l0.3,27.5c0,6.4,0.4,10.9,1.1,13.5
		c0.7,2.6,2,3.8,3.8,3.8c2.4,0,4.9-1.9,7.6-5.6c2.6-3.7,4.7-8.3,6.2-13.6c1.4-5.1,3-7.7,4.9-7.7c2.2,0,3.4,1.7,3.4,5
		s-1.1,7.5-3.4,12.5s-4.9,9.3-8.1,13c-7.7,9.1-17.8,13.6-30.2,13.6c-11.6,0-20.6-4.7-27-14.2c-3.3-4.8-5.6-10.1-6.8-15.9
		c-1.2-5.9-1.9-14-1.9-24.4v-9.9l0.1-27.9v-47.4c-0.9-0.1-1.6-0.1-2-0.1c-0.7,0-2,0.1-3.9,0.3c-1.6,0.2-3,0.3-4.1,0.3
		c-3.2,0-4.8-1.7-4.8-5c0-3.2,1.5-4.8,4.6-4.8c1.4,0,2.5,0,3.1,0.1l7.2,0.7v-15C693.3,838.2,710.3,827.8,724.7,816.5z"/>
	<path class="st0" d="M808.2,904.2L808,955l0.4,52.7h-50.7l0.1-7.3l0.1-27l0.3-48.6l-0.5-54l-0.1-7.7h50.6v27.3
		c7.5-10.8,12.8-17.6,15.7-20.4c6.8-6.4,13.3-9.7,19.3-9.7c3.7,0,6.7,1.1,9.1,3.2c2.4,2.1,3.6,4.8,3.6,8.1c0,2.6-0.7,4.7-2.2,6.4
		c-1.4,1.7-3.2,2.5-5.4,2.5c-1.4,0-2.9-0.5-4.6-1.6c-2.9-1.9-5.3-2.8-7.2-2.8c-4.7,0-9.3,2.2-13.7,6.5
		C818.6,886.9,813.7,894.1,808.2,904.2z"/>
	<path class="st0" d="M946.4,929.1c12.9-26.4,22.3-46.4,28.2-60.1c2.1-4.7,3.4-7.4,3.9-8.2s1.3-1.2,2.3-1.2c1.3,0,2.5,0.7,3.5,2
		c1,1.3,1.6,2.8,1.6,4.5c0,1.3-0.6,2.9-1.7,4.8c-9.5,17.3-21.4,40.8-36,70.5l-17.3,35.6c-6,12.2-10.9,21-14.8,26.3
		c-2.9,3.8-6.3,6.9-10.3,9.3c-4,2.4-7.8,3.6-11.5,3.6c-3.6,0-6.6-0.9-8.9-2.8c-2.3-1.9-3.5-4.3-3.5-7.2c0-1.9,0.5-3.4,1.6-4.8
		c1-1.3,2.3-2,3.8-2c1.1,0,3.3,1,6.5,3c2.1,1.3,3.9,2,5.4,2c3,0,5.8-1.2,8.4-3.6c2.7-2.4,5.6-6.4,8.7-12l-11.6-24.5
		c-25-52.3-41.8-85.9-50.2-101h62.6c3.9,11.6,8.5,23.1,13.6,34.7C935.9,909.4,941.1,919.8,946.4,929.1z"/>
	<path class="st0" d="M1043.7,863.1v18.4c7.7-7.3,15.2-12.8,22.6-16.5c7.4-3.7,14.5-5.5,21.5-5.5c9.3,0,17.2,2.9,23.7,8.6
		c4.9,4.3,8.1,9.7,9.8,16.1c1.7,6.4,2.5,16.8,2.5,31.3l-0.2,61.3l0.3,30.9h-50.1l0.3-36.8l0.3-27l-0.1-40.8
		c-0.1-9.4-0.1-15.1-0.3-16.9c-0.1-1.8-0.4-3.4-0.9-4.8c-1-2.8-3.3-4.2-6.8-4.2c-3.2,0-6.7,1.2-10.5,3.7c-3.7,2.5-7.8,6.2-12.1,11.1
		l-0.1,5.4l-0.2,37.2l-0.2,28.5l0.3,38.9l0.1,5.7h-50.4l0.3-51.9l0.3-34.3l-0.3-29.7l-0.3-28.7L1043.7,863.1L1043.7,863.1z"/>
	<path class="st0" d="M1215.4,919.5v-16.1c-0.1-11.2-0.2-18.1-0.4-20.7c-0.2-2.6-0.8-4.9-1.8-6.9c-2.4-4.9-7.9-7.4-16.6-7.4
		c-13.4,0-23.8,5.6-31.1,16.9c-3,4.6-5.5,6.9-7.5,6.9c-1.5,0-2.8-0.7-4-2.1c-1.1-1.4-1.7-3-1.7-4.9c0-5.6,4.9-11.3,14.7-17.2
		c9.3-5.6,21.4-8.5,36.2-8.5c24.3,0,41.5,4.9,51.5,14.8c4.3,4.3,7.2,9.2,8.5,14.6s2,14.9,2,28.5V970c-0.3,9.7,0,17,0.6,21.9
		c0.7,4.9,2.2,10.2,4.7,15.8h-55.2v-13.9c-6,5.6-12,9.8-18,12.6c-5.9,2.8-11.8,4.2-17.6,4.2c-9.8,0-18.5-3.8-26.1-11.5
		c-9.9-10.1-14.9-23.1-14.9-39.2c0-14.2,4-25.7,12-34.4c9.3-10.3,20.9-15.5,34.7-15.5c5.7,0,10.7,0.7,15,2
		C1204.9,913.4,1209.8,915.9,1215.4,919.5z M1215.4,929c-8.3-5.6-14.7-8.3-19.2-8.3c-3.8,0-6.3,2-7.5,6.1c-0.7,2.2-1,8.6-1,19.2
		v31.6c0.1,7,0.2,11.2,0.5,12.7c0.7,4.1,2.9,6.1,6.7,6.1c3,0,6.4-1.2,10.1-3.6s7.1-5.6,10.2-9.6L1215.4,929z"/>
</g>
</svg>
