<svg xmlns="http://www.w3.org/2000/svg" viewBox="0 0 3780 225.872"><path d="M.424,122.654a3.447,3.447,0,0,0-.424-.27" fill="#d9e021"/><polygon points="0.435 122.652 0.424 122.654 0.436 122.662 0.435 122.652" fill="#d9e021"/><path d="M3780.435,106.553c-4.492,1.1-14.334.008-18.465-2.07a15.2,15.2,0,0,0-13.032-.523,3.054,3.054,0,0,1-3.395-.938c-.657-.665-1.22-1.424-1.883-2.082a4.227,4.227,0,0,0-3.381-1.329,50.269,50.269,0,0,0-6.429,1.069,4.874,4.874,0,0,0-3.4,2.971,35.456,35.456,0,0,1-1.477,3.424,4.552,4.552,0,0,1-3.936,2.116c-.98.081-2-.73-1.833-1.595.178-.912.591-1.787.692-2.7.059-.533-.155-1.491-.479-1.608-2.333-.838-4.713-1.551-7.106-2.2a3.22,3.22,0,0,0-1.837.163,37.908,37.908,0,0,1-11.923,2.17c-2.085.085-4.119,1.509-6.2,1.568-1.767.051-3.538-1.109-5.356-1.515a10.745,10.745,0,0,0-6.445.627,12.812,12.812,0,0,1-8.21.577,41.027,41.027,0,0,0-8.075-.618,11.347,11.347,0,0,0-3.019.381c-2.095.62-4.192,1.265-6.226,2.058-4.149,1.618-8.261,2.415-12.79,1.4-2.309-.516-4.886.033-7.328.3a44.716,44.716,0,0,0-5.915.97c-4.9,1.214-8.441-.374-10.9-4.531a36.728,36.728,0,0,0-2.742-3.773,3.959,3.959,0,0,0-3.5-.8,25.418,25.418,0,0,0-3.276,1.781c-2.308,1.6-4.515,3.353-6.82,4.963a13.922,13.922,0,0,1-8.791,2.814c-6.647-.415-13.062.913-19.532,1.967a15.532,15.532,0,0,1-7.421-.3,18.638,18.638,0,0,1-2.548-1.143,3.182,3.182,0,0,1-1.513-3.173c.723-2.052,1.611-4.05,2.26-6.124a7.927,7.927,0,0,0-.912-6.317,4.477,4.477,0,0,0-7.743-.332,6.375,6.375,0,0,0-.719,7.039c.983,1.942,2.04,3.848,2.973,5.813.639,1.347-.934,3.354-2.428,3.18a14.771,14.771,0,0,1-2.752-.422,15.709,15.709,0,0,0-7.405-.525c-8.762,1.434-17.443-.165-26.148-.733a10.017,10.017,0,0,1-6.579-3.236c-2.84-2.894-5.584-5.879-8.98-8.2a12.085,12.085,0,0,1-2.974-3.548c-1.177-1.835-2.07-3.851-3.222-5.7A5.445,5.445,0,0,0,3494.643,86c-4.981,2.761-10.353,4.323-15.816,5.688a4.57,4.57,0,0,0-1.568.932,1.044,1.044,0,0,0-.272.792c.018.273.178.716.363.768,1.48.407,3,.673,4.469,1.117,1.179.355,2.591.6,3.4,1.407a24.723,24.723,0,0,0,11.287,6.3,1.958,1.958,0,0,1,1.157,2.294c-.29.518-.626,1.2-1.107,1.392a25.965,25.965,0,0,1-14.659,1.732c-1.225-.236-2.433-.575-3.632-.928a12.97,12.97,0,0,0-8.258.252,65.378,65.378,0,0,1-8.153,2.112c-4.274.91-8.579,1.588-12.733,3.092-1.994.723-4.285.67-6.452.848-1.039.086-1.635-.626-1.992-1.6a6.273,6.273,0,0,0-1.224-2.443,3.776,3.776,0,0,0-3.549-.642c-2.109.536-4.164,1.28-6.247,1.919-1.786.549-3.557,1.187-5.379,1.576a6.719,6.719,0,0,1-5.373-1.023c-1.282-.89-2.49-1.884-3.752-2.8-1.621-1.179-3.321-1.778-5.138-.4-3.188,2.411-6.894,2.623-10.741,2.315-1.726-.138-3.456-.24-5.187-.221a27.184,27.184,0,0,0-5.963.579c-8.153,1.943-16.033,1.457-23.632-2.251a5.043,5.043,0,0,0-3.632-.317,42.886,42.886,0,0,1-19.429.265,6.437,6.437,0,0,0-4.48.813c-9.106,4.936-18.827,6.316-29.009,4.959a2.005,2.005,0,0,1-1.328-3.42,5.739,5.739,0,0,1,.674-.647,6.107,6.107,0,0,0,.687-.633,2.128,2.128,0,0,0-.452-3.167c-4.983-3.094-10.461-3.925-16.191-3.579a12.469,12.469,0,0,0-7.009,2.37c-6.339,4.864-13.952,5.041-21.377,5.753a11.673,11.673,0,0,1-5.455-1.071,19.606,19.606,0,0,0-11.946-.887c-1.532.3-3.09.475-4.621.779-3.752.743-7.435,1.262-10.577-1.76-.421-.4-1.147-.474-1.7-.754a7.383,7.383,0,0,0-6.327-.394,8.728,8.728,0,0,1-6.4-.038,29.91,29.91,0,0,0-15.715-1.026c-4.344.783-8.592,1.333-12.911-.337-2.391-.924-4.981-.34-7.392.319-2.7.738-5.32,1.787-8,2.624a4.517,4.517,0,0,1-5.066-1.439,18.866,18.866,0,0,0-1.874-2.088,4.236,4.236,0,0,0-4.38-.78,14.671,14.671,0,0,0-3.343,1.649c-5.1,3.586-10.961,4.337-16.93,4.637-2.178.11-4.37-.143-6.556-.122-6.083.062-11.7-1.347-16.537-5.165a6.564,6.564,0,0,0-5.344-1.265c-2.135.414-4.415.237-6.478.84-3.138.916-5.985,1.076-8.787-.87a6.213,6.213,0,0,0-4.448-.954,76.235,76.235,0,0,1-13.244.619c-2.452-.071-4.94.632-7.383.957-2.082.278-4.142.687-6.2,1.12a25.667,25.667,0,0,1-11.1.355,27.972,27.972,0,0,0-9.57-.395c-4.358.531-8.752.75-13.12,1.206-4.035.421-8.085.812-12.074,1.517a41.9,41.9,0,0,1-13.053.148c-4.64-.628-9.309-1.034-13.965-1.541a16.592,16.592,0,0,0-9.15,1.333,10.812,10.812,0,0,1-10.741-.559,14.265,14.265,0,0,0-3.329-1.69,9.976,9.976,0,0,0-4.56-.516,40.279,40.279,0,0,1-12.113.671c-3.049-.223-5.4.627-7.125,3.409-1.147,1.854-2.448,2.166-3.942,1.3-6.075-3.541-12.28-4.321-18.829-1.39a5.389,5.389,0,0,1-2.743.245c-1.842-.235-3.261-1.91-5.272-1.674a49.142,49.142,0,0,1-5.566.66,82,82,0,0,1-8.419-.471,25.381,25.381,0,0,0-11.126,1c-6.324,2.248-12.828,2.644-19.381,2.389a17.7,17.7,0,0,0-11.33,3.65c-.253.18-.456.427-.694.629-1.335,1.132-1.369,4.024.132,5,3.132,2.032,6.363,3.912,9.574,5.82.8.476,1.717.761,2.52,1.237a2.793,2.793,0,0,1,1.31,3.186c-.213,1.183-.122,2.622,2.034,2.054a3.3,3.3,0,0,0,1.645-1.044c.939-1.093,1.581-2.455,2.5-3.579.264-.324,1.086-.256,1.649-.243a1.252,1.252,0,0,1,.763.5c3.388,4.168,8.079,4.82,12.78,3.873a38.148,38.148,0,0,1,12.061-.63,7.681,7.681,0,0,0,3.693-.325c3.567-1.493,7.342-1.28,11.041-1.771a100.682,100.682,0,0,0,13.811-2.543c4.576-1.275,9.233-1.536,13.872-2.076a25.662,25.662,0,0,1,5.587.253c1.548.163,3.077.786,4.61.772,3.872-.038,7.332.553,10.16,3.637a6.824,6.824,0,0,0,4.243,1.666,41.558,41.558,0,0,1,9.185,1.616,16.6,16.6,0,0,0,11.149.005,6.744,6.744,0,0,1,2.647-.456,21.827,21.827,0,0,0,9.926-2.363,18,18,0,0,1,3.589-1.048,9.8,9.8,0,0,1,8.243,1.3,16.83,16.83,0,0,0,4.569,2.3,40.084,40.084,0,0,1,9.533,4.525,10.543,10.543,0,0,0,9.011,1.066c2.6-.76,4.421-2.279,4.843-5.094.186-1.233.237-2.486.436-3.716a3.182,3.182,0,0,1,3.358-2.615c3.828-.125,7.5.232,10.56,2.915a10.268,10.268,0,0,0,5.914,2.57c2.9.283,5.02,2,6.748,4.512a17.162,17.162,0,0,0,3.182,3.236c.987.841.4,2.694-.895,3.169a11.72,11.72,0,0,1-1.743.665c-6.141,1.156-12.28,2.313-18.435,3.381a22.388,22.388,0,0,1-4.568.284,79.635,79.635,0,0,0-15.959,1.052,3.932,3.932,0,0,1-2.687-.273c-2.21-1.653-4.568-1.667-7.084-1.238a18.236,18.236,0,0,1-7.608-.247,26.546,26.546,0,0,0-11.965.066,20.181,20.181,0,0,1-10.187-.145,6.4,6.4,0,0,0-3.654.161c-3.264,1.062-6.475,2.3-9.665,3.57-3.918,1.562-7.834,2.067-11.85.418-6.45-2.647-13.44-2.51-20.145-3.852a8.02,8.02,0,0,0-3.666.345c-6.431,1.9-13,1.046-19.521,1.063a10.23,10.23,0,0,1-6.168-1.974c-2.728-2.029-5.714-2.2-8.872-1.556a25.751,25.751,0,0,1,.579,3.594,1.872,1.872,0,0,1-.927,1.484,21.975,21.975,0,0,1-5.383,1.417c-3.444.257-6.708.581-9.777,2.563-2.111,1.362-5.358-.18-6.913-3.06-.979-1.814-2.065-3.028-4.2-3.153-1.871-.109-3.733-.436-5.6-.471a13.3,13.3,0,0,1-8.658-3,15.457,15.457,0,0,0-3.247-1.846,7,7,0,0,0-4.549-.64c-4.273.884-8.555,1.731-12.823,2.634-2.529.534-4.99.665-7.129-1.095-2.078-1.71-4.445-2.011-7.036-1.885a38.743,38.743,0,0,1-14.761-1.895c-2.592-.9-5.534-.823-8.329-1.068-1.861-.162-3.905.349-5.582-.245-4.544-1.61-8.576-.346-12.649,1.422-.848.37-1.96.7-2.564-.191-.561-.828.081-1.761.544-2.577a14.582,14.582,0,0,0,.829-1.665,1.69,1.69,0,0,0-1.179-2.188c-1.858-.138-3.725-.2-5.583-.343a1.938,1.938,0,0,1-1.334-2.849,9.137,9.137,0,0,1,1.671-2.21c.4-.367,1.379-.724,1.654-.51a9.278,9.278,0,0,0,7.91,1.617c2.739-.508,4.59,1.549,6.569,3.057.823.626,1.7.433,2.47-.486.6-.713,1.067-1.543,1.7-2.223a4.027,4.027,0,0,1,4.3-1.056c1.19.343,2.283,1.009,3.462,1.405a9.084,9.084,0,0,0,3.592.872,50.267,50.267,0,0,1,10.247.372,22.065,22.065,0,0,0,6.468-.748,9.321,9.321,0,0,0,6.583-10.906,12.719,12.719,0,0,0-4.071-7.2c-1.432-1.207-2.911-2.363-4.413-3.483-3.186-2.379-6.917-3.453-10.627-2.314a23.9,23.9,0,0,1-15.54-.68,18.952,18.952,0,0,0-10.143-.675c-4.6.874-9.229,1.639-13.834,2.506a24.509,24.509,0,0,1-8.383.472c-7.806-1.23-15.556-.474-23.3.567a5.3,5.3,0,0,1-4.991-1.895c-1.035-1.168-2.016-2.386-2.975-3.62a12.965,12.965,0,0,0-5.77-4.608,12.708,12.708,0,0,1-2.527-1.239c-5.491-3.524-6.258-4.041-12.142-1.927a9.791,9.791,0,0,1-6.969-.518,24.527,24.527,0,0,0-5.261-1.472c-2.606-.422-4.713-3.137-7.494-2.335-2.028.585-3.783,2.08-5.717,3.051a8.892,8.892,0,0,1-2.689.739,5.644,5.644,0,0,1-5.194-1.507c-2.751-2.961-5.668-5.8-7.261-9.671-.6-1.464-2.091-1.716-2.913-.5-1.186,1.748-2.436,2.653-4.656,2.11a3.424,3.424,0,0,0-2.6.643c-3.815,3.139-8.62,3.551-13.09,4.777-1.7.465-3.687-.155-5.545-.225a35.608,35.608,0,0,0-3.711.025,2.85,2.85,0,0,0-2.368,3.4,12.172,12.172,0,0,0,.7,1.728c.578,1.47-.493,2.347-2.035,2.2a23.735,23.735,0,0,1-4.549-.9c-1.485-.447-2.859-1.276-4.349-1.7a8.431,8.431,0,0,0-5.794.577,4.287,4.287,0,0,0-2.384,2.589c-.452,1.412-.673,2.9-1.15,4.306-1.3,3.821-4,5.5-7.867,5.038a40.207,40.207,0,0,0-5.548-.58c-9.671.2-19.342.446-29.007.841a12.167,12.167,0,0,0-4.35,1.526c-1.118.525-2.078,1.374-3.153,2.006a3.2,3.2,0,0,1-3.49-.483,20.617,20.617,0,0,1-1.671-2.24,9.255,9.255,0,0,0-3.863-3.5,40.614,40.614,0,0,1-5-2.8,4.376,4.376,0,0,0-4.557-.356,9.911,9.911,0,0,0-5.681,5.873c-.6,1.592-1.42,1.734-3.245.668a10.057,10.057,0,0,0-5.777-1.4c-1.629.116-3.265.288-4.895.247a8.844,8.844,0,0,0-5.948,2.333,5.569,5.569,0,0,1-5.3,1.093,27.97,27.97,0,0,0-11.1-.842,56.137,56.137,0,0,1-10.283-.242,26.152,26.152,0,0,0-14.6,2.265,15.249,15.249,0,0,1-7.252,1.613,3.9,3.9,0,0,1-3.648-2.42,7.639,7.639,0,0,1-.407-1.823c-.239-3.419-2.322-4.918-5.465-5.36a5.162,5.162,0,0,1-1.028-.28c-2.44-1.013-4.651-1.02-6.819.931-1.721,1.55-4.047,1.873-6.331,1.819a10.666,10.666,0,0,1-2.813-.529,5.02,5.02,0,0,0-5.009.985c-2.088,1.732-4.526,1.912-7.093,1.419-2.141-.411-4.3-1.06-6.485-.462-2.609.714-4.028-.691-5.437-2.565-1-1.326-2.171-1.367-2.99.042-1.573,2.7-3.863,3.01-6.432,2.339a21.792,21.792,0,0,1-5.142-2.129,9.793,9.793,0,0,0-7.237-1.049,59.186,59.186,0,0,0-8.078,2.316,22.582,22.582,0,0,1-9.142,1.626,26.474,26.474,0,0,0-5.606.167,10.839,10.839,0,0,1-9.468-2.741c-2.924-2.451-6.77-3.092-10.478-3.716a3.1,3.1,0,0,0-3.277,1.333,6.008,6.008,0,0,1-4.87,3.157c-2.9.286-5.807.516-8.683,1-4.674.778-9.309,1.559-14.078,1.29a33.263,33.263,0,0,0-11.073,1.662c-1.186.342-2.417.529-3.635.754a2.7,2.7,0,0,1-2.245-1.441c-.884-2.653-1.718-5.324-2.6-7.977a1.991,1.991,0,0,0-3.074-.887,41.994,41.994,0,0,1-3.166,3.428,7.382,7.382,0,0,1-3.239,1.651c-2.772.49-5.652.781-8.24-.7-3.739-2.145-7.686-2.367-11.8-1.7a8.4,8.4,0,0,1-2.793.1,16.478,16.478,0,0,1-3.507-1.138,4.239,4.239,0,0,1-1.4-1.218,7.893,7.893,0,0,0-5.639-2.937c-3.254-.261-6.315-.128-9.209,2.222a13.786,13.786,0,0,1-5.429,2.806c-2.656.637-4.673,4.031-7.612,3.275-2.307-.593-4.327-2.319-6.457-3.577a8.759,8.759,0,0,1-2.3-1.579c-3.03-3.578-6.84-3.874-11.082-2.991-6.108,1.271-12.357,1.894-18.22,4.256a27.168,27.168,0,0,1-4.566,1.013,5.875,5.875,0,0,1-5.294-1.132c-3.07-2.611-6.648-3.193-10.535-2.926a64.738,64.738,0,0,0-8.344,1.059c-2.644.533-4.7,1.378-5.752,4.088-1,2.574-3.261,3.633-5.829,4.175-3.085.649-6.127,1.078-9.227-.082-1.417-.531-2.995-.614-4.463-1.031a8.914,8.914,0,0,0-5.712.184c-4.111,1.628-8.533,1.084-12.786,1.738-1.168.18-2.474-.564-3.653-.41a2.718,2.718,0,0,0-1.885,1.7,29.427,29.427,0,0,0-.032,4.622c-.017.931-.157,1.861-.266,2.789-.136,1.163-1.614,2.4-2.6,2.206a9.467,9.467,0,0,1-1.824-.37,24.639,24.639,0,0,0-11.94-1.607,47.311,47.311,0,0,1-7.474-.3c-2.646-.2-3.288-1.052-2.971-3.531a24.588,24.588,0,0,0,.407-4.6,3.5,3.5,0,0,0-1.98-3.007c-3.687-1.62-7.413-3.157-11.158-4.639a6.22,6.22,0,0,0-2.863-.432c-5.931.553-11.808-.381-17.712-.529a48.709,48.709,0,0,0-5.6.045,6.083,6.083,0,0,0-5.319,3.429,6.559,6.559,0,0,1-3.448,3.239c-1.846.853-2.679,3.107-3.986,4.759a3.524,3.524,0,0,1-4.342.878,23.514,23.514,0,0,1-2.549-1.587q2.022-12.138,4.042-24.273a12.165,12.165,0,0,0-3.233,1.7c-1.083,1.077-1.7,2.6-2.667,3.818a3.418,3.418,0,0,1-3.319,1.3,15.606,15.606,0,0,1-2.7-.718c-4.541-1.589-9.079-2.182-13.744-.426a12.885,12.885,0,0,1-6.49.328c-2.473-.365-4.966-.644-7.4-1.172-4.307-.932-8.026-.267-10.964,3.306a11.906,11.906,0,0,1-2.211,1.725,12.461,12.461,0,0,1-8.817,2.47c-3.111-.282-6.212-.673-9.326-.912a6.447,6.447,0,0,1-4.734-2.653,3.1,3.1,0,0,0-3.27-1.347,41.257,41.257,0,0,1-9.266,1.116,11.806,11.806,0,0,0-4.565.894,37.144,37.144,0,0,1-16.3,3.667,8.5,8.5,0,0,0-2.712.7,8.647,8.647,0,0,1-7.446-.778c-1-.564-1.993-1.157-3.034-1.653-2.541-1.209-5.022-2.6-7.611-3.735a9.644,9.644,0,0,0-9,.531,40.3,40.3,0,0,0-3.925,2.552,11.867,11.867,0,0,1-7.92,2.334c-2.484-.143-4.993-.1-7.447-.453a6.916,6.916,0,0,0-5.068,1.029,7.057,7.057,0,0,1-6.387.855,83.9,83.9,0,0,0-24.667-5.06,101.379,101.379,0,0,0-13.089.393,19.492,19.492,0,0,1-9.368-1.32,16.4,16.4,0,0,0-5.478-1.188,14.054,14.054,0,0,1-5.949-1.761,2.011,2.011,0,0,0-2.391.869c-1.142,1.834-1.573,4.1-3.472,5.476-3.213,2.321-6.663,3.279-10.6,2.192-5.707-1.577-11.432-3.089-17.159-4.595a34.944,34.944,0,0,0-4.559-.937,1.843,1.843,0,0,0-1.556.743,20.436,20.436,0,0,1-4.139,7.23,13.825,13.825,0,0,0-2.085,3.092,5.7,5.7,0,0,0,.388,6.2,6.338,6.338,0,0,0,4.487,3.084c2.468.325,4.994.287,7.432.742a7.009,7.009,0,0,0,6.094-1.5c6.8-5.459,7.106-4.068,13.764-4.561a14.709,14.709,0,0,1,6.208.933,44.149,44.149,0,0,0,4.466,1.44c5.616,1.393,11.209,2.1,16.7-.564a14.2,14.2,0,0,1,7.334-1.109,42.3,42.3,0,0,1,5.587.507,26.9,26.9,0,0,0,12.983-.554,26.642,26.642,0,0,1,11.164-.614,53.481,53.481,0,0,0,8.333.44c7.861-.186,15.608.182,22.9,3.564,2.478,1.149,4.832.714,7.212-.39,3.976-1.843,8.022-3.515,12.465-3.864a17.9,17.9,0,0,0,8.753-2.892,12.576,12.576,0,0,1,9.942-1.512c4.165.972,8.265,2.232,12.367,3.456a19.257,19.257,0,0,1,3.8,1.709c2.075,1.276,4.092,2.65,6.105,4.026a4.268,4.268,0,0,1,1.075,5.825,6.267,6.267,0,0,1-5.3,3.341,3.922,3.922,0,0,0-3.542,2.587c-.388.845-.89,1.637-1.309,2.47-.995,1.982-1.723,2.374-3.38,1.661-4.011-1.726-8.142-3.183-11.836-5.6a16.533,16.533,0,0,0-3.434-1.379,2.172,2.172,0,0,0-2.252,1.289,2.292,2.292,0,0,0,.045,1.729,26.964,26.964,0,0,0,2.7,2.508,1.1,1.1,0,0,1,.182,1.657,1.289,1.289,0,0,1-.767.5,17.347,17.347,0,0,1-4.62.152c-4-.841-7.4.63-10.73,2.41-1.364.729-2.547,1.79-3.852,2.636-2.561,1.659-5.052,1.33-7.559-1.088a1.121,1.121,0,0,1,.047-1.654c.924-.808,2.073-1.351,3.07-2.087a1.786,1.786,0,0,0-.714-2.991,32.419,32.419,0,0,0-5.459-1.054,3.033,3.033,0,0,0-3.533,2.386,6.919,6.919,0,0,1-4.739,5.33,33.682,33.682,0,0,1-6.2,2.034c-3.725.668-7.359.68-10.794-1.662-2.117-1.444-5.053-1.9-7.5-2.443a52.4,52.4,0,0,0-6.41-.933c-3.841-.367-7.747-1.9-11.408.452a48.834,48.834,0,0,1-6.508.1,80.149,80.149,0,0,0-12.14-.662,39.837,39.837,0,0,1-8.377-.723,56.875,56.875,0,0,0-16.778-.8,18.634,18.634,0,0,1-8.936-.975,18.176,18.176,0,0,0-12.168-.348c-4.217,1.421-8.553,1.637-12.954,1.909-6.87.423-13.719-.962-20.586.05-1.961.29-3.42-1.325-5.067-2.172-2.69-1.383-5.405-1.725-7.884.352-2.367,1.983-5.017,2.305-7.915,1.846-3.394-.538-6.788-1.079-10.195-1.529a13.171,13.171,0,0,0-7.332,1.008c-.853.391-1.686.821-2.546,1.195a10.281,10.281,0,0,1-7.331.094,7.611,7.611,0,0,1-2.556-1.131c-2.748-2.215-5.722-2.022-8.878-1.209-1.808.467-3.7.612-5.536.97a41.858,41.858,0,0,1-15.835.1c-3.069-.575-6.168-1-9.257-1.465a17.985,17.985,0,0,0-7.447.168,29.268,29.268,0,0,1-11.868.4,28.176,28.176,0,0,0-5.761-.226,41.327,41.327,0,0,1-10.319-.625,20.36,20.36,0,0,0-9.208.312,25.3,25.3,0,0,1,1.036-3.5,4.136,4.136,0,0,1,1.694-2.126,38.845,38.845,0,0,0,8.786-5.19c1.389-1.078,3.43-1.409,5.235-1.826,1.19-.275,2.524.077,3.716-.2a4.5,4.5,0,0,0,2.214-1.507,15.067,15.067,0,0,0,1.251-2.495c.864-1.572,1.729-1.817,2.992-.809,1.446,1.155,2.6,2.784,4.638,2.968,7.273.661,14.46.357,21.422-2.149a3.681,3.681,0,0,0,2.387-2.763c.5-2.654.858-5.337,1.144-8.022a1.715,1.715,0,0,0-1.075-1.278c-4.309-.709-8.631-1.351-12.964-1.893a7.779,7.779,0,0,0-3.7.2c-4.8,1.931-9.879,1.044-14.8,1.642-1.109.135-1.539-.816-1.751-1.778-.067-.305-.113-.615-.17-.921a4.789,4.789,0,0,0-4.227-4.306c-7.382-1.32-14.9-1.321-22.3-2.437a3.583,3.583,0,0,0-3.886,2.034c-1.316,2.633-3.537,3.342-6.253,2.965-.924-.128-1.831-.389-2.745-.594-1.764-.4-2.991.421-4,1.755-2.064,2.74-4.027,5.563-6.227,8.187a8,8,0,0,1-5.745,2.812c-1.243.08-2.5.067-3.743.023a7.254,7.254,0,0,0-5.749,2.564,8.452,8.452,0,0,1-2.143,1.8,3.5,3.5,0,0,1-3.568.133c-1.085-.613-2.066-1.409-3.112-2.094a5.547,5.547,0,0,0-4.433-.752c-1.21.32-2.371.848-3.591,1.107a5.952,5.952,0,0,1-5.939-1.944c-1.662-1.858-3.13-3.889-4.723-5.81a10.229,10.229,0,0,0-6.458-3.46,14.632,14.632,0,0,0-10.766,2.095c-1.047.676-2,1.5-3.029,2.2a3.009,3.009,0,0,1-4.224-.195c-2.147-1.838-4.167-3.731-5.084-6.572a6.73,6.73,0,0,0-3.874-3.865c-1.414-.662-2.86-1.257-4.267-1.933a7.316,7.316,0,0,0-7.95.483,7.954,7.954,0,0,1-3.48,1.151,7.287,7.287,0,0,0-4.257,1.666c-1.768,1.6-3.9,1.819-6.146,1.527-3.94-.512-7.859-1.307-11.854-.36a1.978,1.978,0,0,1-2.236-1.1c-.439-.927-.708-1.94-1.186-2.845a2.118,2.118,0,0,0-3.241-.566,13.359,13.359,0,0,0-1.852,2.076c-1.152,1.65-2.466,1.53-4.036.646a2.276,2.276,0,0,0-3.237.9c-1.975,3.206-4.813,3.679-8.14,2.819-1.209-.312-2.407-.668-3.6-1.04a4.444,4.444,0,0,0-4.347,1c-1.688,1.378-3.422,1.032-5.276.387-2.725-.949-4.8-2.866-7.113-4.446a3.713,3.713,0,0,0-4.413-.219,11.018,11.018,0,0,1-6.939,2.2,23.407,23.407,0,0,0-6.331,1.492,7.061,7.061,0,0,1-4.2.2,12.254,12.254,0,0,0-7.515.015,29.262,29.262,0,0,1-14.935,1.2c-1.843-.318-3.664-.818-5.517-1-2.062-.208-3.178,1.828-4.935,2.4-1.484.48-3.042.743-4.5,1.291a9.353,9.353,0,0,1-6.526,0c-4.851-1.771-9.625-1.141-14.566.065-6.487,1.582-13,1.554-18.982-2.172a15.106,15.106,0,0,0-1.646-.892,4.168,4.168,0,0,0-4.437.2,10.654,10.654,0,0,1-7.966,2.006l.057-.033c-1.195.266-2.5.987-3.565.723a19.221,19.221,0,0,0-15.064,2.162,6.5,6.5,0,0,1-2.695.925,15.515,15.515,0,0,1-3.845-.2,5.465,5.465,0,0,1-1.645-.858c-5.739-3.278-11.689-4.043-17.941-1.572-1.795.709-3.662,1.233-5.451,1.955a11.558,11.558,0,0,1-5.317.8c-4.65-.4-9.3-.833-13.951-1.184a10.316,10.316,0,0,0-3.681.154,20.124,20.124,0,0,1-9.251.527,6.374,6.374,0,0,0-5.884,2.091,9.236,9.236,0,0,1-2.366,1.475c-1.745.91-3.541,1.267-5.281.011a4.815,4.815,0,0,0-4.419-.684,3.791,3.791,0,0,1-4.154-1.41c-.983-1.2-1.786-2.555-2.742-3.783a5.209,5.209,0,0,0-4.964-2.042c-4.008.545-8.013,1.187-11.962,2.051a8.17,8.17,0,0,0-4.052,2.149c-2.583,2.764-5.238,3.779-9.149,2.878-2.932-.677-6.189-.042-9.293.145a102.878,102.878,0,0,1-20.485-.845c-3.487-.486-6.572-1.869-9.817-2.917-1.833-.592-3.612-.88-5.394.216-1.439.885-2.1-.243-3.012-1.136-1.628-1.6-3.539-1.028-4.238,1.119-.191.589-.219,1.229-.395,1.823-.974,3.286-2.9,5.017-5.789,5.084-2.492.06-4.993.1-7.479-.041-4.215-.238-8.3-.95-11.526-4.155a5.617,5.617,0,0,0-3.958-1.585c-4.267-.026-6.838-2.5-8.887-5.847-.65-1.062-1.3-2.131-2.015-3.147-1.184-1.672-2.87-2.6-4.842-1.978a10.6,10.6,0,0,1-9-.729,10.371,10.371,0,0,0-8.085-1.361c-.871.23-1.955-.248-2.776.051-3.7,1.345-6.58.242-9.018-2.591a1.2,1.2,0,0,0-.893-.392,5.814,5.814,0,0,0-1.72.412.953.953,0,0,0-.335.819c.155.916.52,1.81.585,2.727a2.138,2.138,0,0,1-.572,1.621c-.346.275-1.422.282-1.6.02-2.059-3.068-5.739-3.59-8.527-5.491a3.4,3.4,0,0,0-2.654-.184c-4.29,1.507-8.669.523-13,.554a6.481,6.481,0,0,1-3.378-1.4c-1.263-.884-2.257-2.145-3.467-3.118a11.158,11.158,0,0,0-2.44-1.321c-1.5-.675-3.532-.2-4,1.232-.856,2.6-2.27,4.34-5.084,4.711a6.475,6.475,0,0,0-1.859.534c-2.579,1.188-5.4,1.473-8.079,2.243a9.11,9.11,0,0,1-7.97-1.154,2.854,2.854,0,0,0-4.141.911c-1.976,3.157-4.5,4.863-8.37,4.848a23.812,23.812,0,0,0-6.374,1.267,5.026,5.026,0,0,0-2.135,1.621c-.809.927-1.3,2.17-2.195,2.971a4.1,4.1,0,0,1-2.553.757c-1.128,0-2.147-1.379-2.137-2.641,0-.613.218-1.221.278-1.836.226-2.336-.4-2.846-2.526-1.729a14.419,14.419,0,0,1-6.153,1.959c-.4.455-.807.911-1.214,1.363-.208.231-.411.468-.636.681a4.6,4.6,0,0,0-1.455,5.048,2.892,2.892,0,0,1-.939,3.342,2.727,2.727,0,0,1-3.439-.111c-5.069-3.789-10.861-4.225-16.868-3.79-3.173.229-6.122.791-8.22,3.607a4.192,4.192,0,0,1-5.008,1.479,6.411,6.411,0,0,0-6.83,1.4,2.075,2.075,0,0,1-2.653,0,20.615,20.615,0,0,0-8.4-3.877c-3.9-.9-7.912-1.377-11.89-1.94a2.506,2.506,0,0,0-1.672.679c-1.6,1.36-3.107,1.85-4.951.329a4.149,4.149,0,0,0-5.2,0q-7.377,4.871-14.622,9.939a7.088,7.088,0,0,0-1.785,2.109,5.853,5.853,0,0,0,1.071,6.855c2.044,2.058,4.62,3.1,7.241,4.079a6.711,6.711,0,0,1,4.566,6.409,45.036,45.036,0,0,1-.335,5.5c-3.476-.975-6.715.892-10.035.892-3.406,0-6.814-.533-10.22.114a8.468,8.468,0,0,0-1.8.494c-2.967,1.305-6.043,1.148-9.187.971-5.337-.3-10.751.132-15.6,2.28-5.756,2.548-11.54,4.569-17.81,5.138a2.049,2.049,0,0,0-.571.14,9.5,9.5,0,0,1-9.381-1.111,6.723,6.723,0,0,0-5.255-.912,5.555,5.555,0,0,1-5.244-1.792,22.453,22.453,0,0,0-2.106-1.846,5.563,5.563,0,0,0-5.291-.935,13.088,13.088,0,0,0-2.581,1.071c-2.552,1.511-5.334,1.643-8.156,1.425a28.114,28.114,0,0,1-5.528-.793c-3.5-1-6.069.343-8.306,2.829-.625.695-1.231,1.408-1.827,2.128-2.358,2.85-4.166,3.16-5.422-1.46a34.893,34.893,0,0,0-1.463-4.414c-.925-2.189-4.7-2.809-6.436-1.031-1.079,1.1-1.929,2.433-2.912,3.635a1.443,1.443,0,0,1-2.4-.049c-1.64-2.8-3.9-2.723-6.443-1.68a22.169,22.169,0,0,0-3.339,1.675,22.531,22.531,0,0,1-12.5,3.2,27.555,27.555,0,0,0-6.506.348c-3.02.721-5.865,2.046-8.974.2-.655-.387-1.832-.052-2.72.153a10.772,10.772,0,0,1-5.527-.144,14.184,14.184,0,0,0-4.572-.743,14.337,14.337,0,0,1-9.656-2.856,2.382,2.382,0,0,0-2.574-.009,8.173,8.173,0,0,1-7.97.819c-2.921-1.043-6.021-1.589-9.042-2.35a3.478,3.478,0,0,0-4.1,1.371c-1.183,1.8-2.767,2.568-4.771,1.839a10.776,10.776,0,0,0-9.575.94,6.169,6.169,0,0,1-1.086.484,3.847,3.847,0,0,1-3.595-.446c-1.508-1.1-3.052-2.156-4.557-3.262-1.583-1.164-1.692-3.211-.375-4.931a27.733,27.733,0,0,1,7.643-6.792,7.01,7.01,0,0,1,3.558-.872,28.593,28.593,0,0,1,5.553.662c3.643.761,7.084,2.367,10.9,2.47A3.823,3.823,0,0,1,666.625,143a3.726,3.726,0,0,0,2.915,2.075,19.753,19.753,0,0,0,4.611-.375,7.476,7.476,0,0,0,2.419-1.362c1.287-.876,2.466-1.925,3.8-2.706,2.841-1.659,5.755-2.274,8.831-.4,1.259.764,2.357.136,3.193-.964a25.435,25.435,0,0,1,1.731-2.2c2.209-2.318,4.463-2.761,7.633-1.405A12.01,12.01,0,0,1,704,137.3l-.034-.057c1.536-.248,3.1-.4,4.6-.767,2.39-.585,4.287-2.63,7-2.331,2.989.329,3.525,3.306,5.367,4.87,1.129.959,3.456,1.164,4.213-.083a8.751,8.751,0,0,1,5.872-4.224,31.6,31.6,0,0,1,5.446-1.232,19.2,19.2,0,0,0,8.153-2.158,7.42,7.42,0,0,1,6.269-.294,15.174,15.174,0,0,0,8.284.67,27.773,27.773,0,0,1,5.565-.078c1.825.051,3.653.352,5.471.308a28.542,28.542,0,0,1,11.812,2.046,52.259,52.259,0,0,0,18.5,3.642c3.142.121,6.211.192,9.2,1.333a8.084,8.084,0,0,0,5.531-.086c5.32-1.818,10.62-3.7,14.738-7.807,1.372-1.367,2.8-.931,4.275-.1a3.011,3.011,0,0,0,3.432-.339c1.217-1.046,2.463-2.007,4.179-1.6,3.638.861,6.717-.726,9.8-2.223.368-.179.722-1.366.548-1.536-2.748-2.672-4.345-6-5.824-9.456a11.157,11.157,0,0,0-2.233-2.985c-2.2-2.357-6.912-3.36-9.52-1.508-3.694,2.625-7.888,3.538-12.057,4.857a24.773,24.773,0,0,1-12.912.67c-2.446-.512-4.944-.83-7.337-1.519-3.01-.868-5.912-1.93-9.148-1.038a4.213,4.213,0,0,1-2.638-.676,5.777,5.777,0,0,0-5.41-.241c-4.622,2.279-9.35,1.893-14.258.757a69.807,69.807,0,0,0-7.879-1.356,17.5,17.5,0,0,1-8.661-2.966,6.846,6.846,0,0,0-3.367-1.432,33.277,33.277,0,0,1-9.087-2.014c-3.277-1.135-6.1.377-8.582,2.444a2.543,2.543,0,0,0-.693,1.653c-.093,1.357-.378,2.61-2.02,2.429a17.009,17.009,0,0,0-10.814,2.174,6.081,6.081,0,0,1-5.438.342,9.167,9.167,0,0,0-7.278-.268c-1.251.528-2.413,0-3.574-.546a15.26,15.26,0,0,0-4.291-1.694c-4.331-.543-8.7-.839-13.053-1.14a9.552,9.552,0,0,0-3.707.276c-5.453,1.906-11.116,1.446-16.708,1.59-2.831.073-5.588.078-8.273,1.159a11.945,11.945,0,0,1-6.477.339,53.031,53.031,0,0,1-5.534-.989c-4.222-1.155-8.337-2.233-12.8-.775-1.925.628-4.426-.292-6.475-.435a41.966,41.966,0,0,1-6.667-.9c-5.224-1.224-10.418-2.3-15.593-.936a22.407,22.407,0,0,1-2.767.491,10.363,10.363,0,0,1-7.162-1.642c-1.8-1.211-3.518-2.555-5.312-3.781a3.219,3.219,0,0,0-4.084,1.2c-.808,1.678-1.466,3.428-2.207,5.138-1.037,2.394-2.633,3.486-5.042,3.4-3.115-.111-6.262-.615-9.333-.316a75.986,75.986,0,0,0-12.889,2.271c-3.807,1.055-7.352,1.272-10.922-.455a16.979,16.979,0,0,0-9.519-1.213c-4.473.484-8.969.722-13.459,1.008a28.472,28.472,0,0,1-5.795-.024c-7.105-1.018-14.275-1.744-21.153-3.994a25.872,25.872,0,0,0-2.722-.657,3.373,3.373,0,0,0-3.112,1.659,20.841,20.841,0,0,0-.791,2.685,3.175,3.175,0,0,1-3.506,2.478,33.776,33.776,0,0,1-3.73-.322c-2.476-.348-4.943-.751-7.412-1.146-10.183-1.629-10.562-1.628-23.164-.819a5.236,5.236,0,0,1-2.672-.658,32.99,32.99,0,0,1-3.023-2.2,6.083,6.083,0,0,0-7.035-.133c-1.606.936-3.067,2.4-4.785,2.8-2.333.537-3.732-1.912-5.665-2.837-2.527-1.209-4.89-2.76-7.348-4.12a13.224,13.224,0,0,0-6.727-1.76,4.56,4.56,0,0,0-3.877,2.189,13.907,13.907,0,0,1-10.1,6.8,1.914,1.914,0,0,0-.8.45c-.226.188-.578.5-.539.682.112.535.251,1.258.637,1.5.77.49,1.781.6,2.552,1.088a1.721,1.721,0,0,1,.643,1.47,2.061,2.061,0,0,1-1.209,1.219,6.342,6.342,0,0,1-2.733.386,42.809,42.809,0,0,1-7.35-1.338,11.94,11.94,0,0,0-8.209-.115,6.275,6.275,0,0,1-4.576-.4c-2.849-1.16-5.7-2.383-8.816-2.387A30.459,30.459,0,0,1,357.924,118a8.923,8.923,0,0,0-6.443-.248c-3.951,1.643-7.918,1.417-11.976.727-2.169-.369-4.484-.633-6.41.575-3.074,1.926-6.589,1.721-9.891,2.525a5.567,5.567,0,0,1-4.418-.915,3.623,3.623,0,0,0-2.606-.609c-3.59,1.334-7.5.583-11.059,1.8a19.77,19.77,0,0,1-10.166.532c-1.842-.337-3.7-.573-5.564-.8-2.006-.249-2.706.86-2.884,2.69a1.692,1.692,0,0,1-1.379.914c-2.137-.427-4.221-1.115-6.353-1.574-3.388-.731-6.77-1.139-10.133.294a13.2,13.2,0,0,1-7.389.442c-3.087-.485-6.213-.806-9.245-1.529-5.229-1.248-11.043,1.116-15.439-3.446a14.7,14.7,0,0,0-9.284-4.043,5.911,5.911,0,0,1-1.67-.651,6.37,6.37,0,0,1-4.062-5.8,3.307,3.307,0,0,1,.254-1.779c.322-.583,1.034-.589,1.639-.172a9.268,9.268,0,0,0,9.749.749c.257-.118.588-.474.574-.7-.035-.569-.067-1.338-.427-1.647a5.647,5.647,0,0,0-2.409-1.29c-4.241-.851-8.552-1.38-12.567-3.148a7.1,7.1,0,0,0-2.771-.655c-2.8-.023-5.527-1.767-8.357-.487-2.983,1.349-3.113,4.465-4.12,7.019a5.809,5.809,0,0,1-3.147,3.286c-1.14.508-2.326.913-3.49,1.367-2.461.961-4.333,2.435-4.812,5.247a2.934,2.934,0,0,1-.842,1.637c-2.415,2.059-5.181,3.92-8.374,3.584a24,24,0,0,0-10.137.894,8.431,8.431,0,0,1-5.527,0c-5.791-2.076-11.74-1.231-17.6-.684-2.222.208-4.189.619-6.26-.557a3.676,3.676,0,0,0-2.688-.088,16.4,16.4,0,0,1-8.335.408,14.421,14.421,0,0,0-10.039,1.724,4.481,4.481,0,0,1-5.022-.5c-1.377-1.086-2.2-.279-3.156.8-1.6,1.817-2.985,1.969-4.855.9-2.16-1.237-4.167-2.979-6.488-3.652-5.276-1.533-10.646-2.9-16.165-.769a8.38,8.38,0,0,1-7.467-.835c-1.327-.842-2.564-1.84-3.935-2.6a5.483,5.483,0,0,0-4.531-.479c-5.576,1.957-11.445,3.144-16.488,6.505-1.861,1.24-2.868,1.191-4.095-.4-3.111-4.037-7.221-4.576-11.771-3.766a37.525,37.525,0,0,0-5.426,1.457,31.305,31.305,0,0,1-13.8,1.932,10.638,10.638,0,0,0-7.832,2.417c-4.29,3.233-4.576,3.108-8.7-.421-.577-.493-1.1-1.086-1.707-1.515.12,1.164.023,102.288,0,103.21h3780" fill="#d9e021"/><path d="M964.723,100.884h.017l.026-.029Z" fill="#d9e021"/><path d="M2910.284,145.494l.05-.009-.011-.054Z" fill="#d9e021"/><path d="M3152,72.315h.013l.012-.023Z" fill="#d9e021"/><path d="M2997.568,103.475a3.606,3.606,0,0,0,2.62-.6c1.485-1.114,2.708-2.574,4.147-3.762a13.568,13.568,0,0,1,8.642-3.094,3.711,3.711,0,0,1,2.331,1.176c.625.632.8,1.688,1.381,2.389a1.972,1.972,0,0,0,1.6.564,1.918,1.918,0,0,0,1.3-1.1c.3-1.191.272-2.46.487-3.678a3.816,3.816,0,0,1,3.022-3.19,23.389,23.389,0,0,1,4.6-.624c2.8-.1,5.618.116,8.409-.081a18.7,18.7,0,0,1,8.268,1.081,22.691,22.691,0,0,0,11.048,1.2,59.361,59.361,0,0,1,6.539-.238,12.424,12.424,0,0,0,8.626-3.018,11.214,11.214,0,0,1,7.781-2.656c1.246-.013,2.493-.128,3.734-.257a6.867,6.867,0,0,1,6.629,2.606,10.727,10.727,0,0,0,1.25,1.391,5.765,5.765,0,0,0,6.089,1.223c2.649-.9,5.27-1.883,7.9-2.83,4.786.4,9.161-1.623,13.733-2.449,4-.723,7.894-1.634,11.994-1.074a12.263,12.263,0,0,0,6.351-1.275,3.6,3.6,0,0,1,3.584.154c3.424,2.531,7.5,3.231,11.465,3.592,5.867.533,11.866.738,17.319-2.342a14.832,14.832,0,0,1,9.055-1.671c3.1.319,6.2.747,9.3,1.072,3.413.357,6.827.732,10.249.949,2.539.162,5.215-.129,7.036-1.96,3.012-3.029,6.537-3.19,10.372-2.814,3.1.3,6.222.424,9.333.642,2.488.175,5.02.761,7.451.476a9.5,9.5,0,0,1,9.636,4.351,8.506,8.506,0,0,0,1.346,1.291c1.532,1.385,3.6,1.8,5.085.393,2.517-2.384,5.335-2.943,8.6-2.607a20.392,20.392,0,0,0,4.647-.174,1.874,1.874,0,0,0,1.218-1.195,2.108,2.108,0,0,0-.511-1.63,5.788,5.788,0,0,0-5.061-1.909c-2.478.251-4.921.822-7.394,1.142a24.323,24.323,0,0,1-3.7.054c-.26-.007-.721-.279-.731-.449-.03-.538-.093-1.341.217-1.587,1.457-1.151,3.042-2.143,4.568-3.209a2.383,2.383,0,0,0,.765-3.274,71.376,71.376,0,0,0-4.889-5.641,9.41,9.41,0,0,0-7.713-2.7c-3.413.34-6.8.9-10.211,1.3-3.174.37-6.052,1.267-8.4,3.622-2.066,2.072-4.772,2.822-7.606,3.27a5.264,5.264,0,0,1-6.048-3.169,8.6,8.6,0,0,0-.924.056c-2.965.481-5.5.123-7.191-2.859-.7-1.232-2.174-1-3.379-.46-1.963.878-3.766,2.561-6.061,2.032a10.877,10.877,0,0,0-9.625,2.186,12.2,12.2,0,0,1-3.342,1.61c-1.818.651-3.945.916-5.4-.276-3.276-2.691-6.9-2.459-10.646-2.007-2.157.26-4.307.59-6.459.889a6.86,6.86,0,0,1-3.893,3.78c-7.459,2.528-14.979,4.086-22.92,2.334a77.869,77.869,0,0,1-9.046-2.25,34.994,34.994,0,0,0-11.038-1.711,7,7,0,0,0-5.839,2.407,10.5,10.5,0,0,1-6.184,3.856,26.233,26.233,0,0,0-5.252,1.908,20.417,20.417,0,0,1-10.98,1.4c-3.8-.426-7.375-1.089-9.629-4.768a4.011,4.011,0,0,0-4.169-1.533q-9.252,1.3-18.494,2.683a18.439,18.439,0,0,0-3.6.953c-5.022,1.861-10.375,2.036-15.548,3.116a11.535,11.535,0,0,1-6.43-.671,14.822,14.822,0,0,0-7.319-1.079c-4.378.624-8.7.006-13.036-.494-3.712-.428-7.43-.823-11.154-1.146a7.943,7.943,0,0,0-6.058,1.954c-.944.814-1.894,1.62-2.841,2.429l-1.341,11.17c2.007.857,4.069,1.608,6.012,2.594C2987.773,101.533,2992.7,102.4,2997.568,103.475Z" fill="#d9e021"/><path d="M3205.007,71.09c.009.019.02.035.03.053h.007Z" fill="#d9e021"/><path d="M2100.377,99.42c2.456.78,4.936.294,7.4-.091,2.152-.336,4.329-1.086,6.446-.941a23.945,23.945,0,0,0,10.066-1.476,7.449,7.449,0,0,1,5.488.244c1.151.477,2.259,1.059,3.416,1.52a9.728,9.728,0,0,0,9-.521,38.125,38.125,0,0,1,11.183-4.593,22.493,22.493,0,0,0,5.122-2.239,6.619,6.619,0,0,0,3.724-5.071c.133-.925.255-1.853.335-2.784.409-4.752,2.421-6.127,6.59-5.891a33.135,33.135,0,0,0,3.726.21,8.647,8.647,0,0,0,2.676-.719,4.675,4.675,0,0,0,3.02-4.313c-.168-1.54-2.12-2.71-4.319-2.807a12.523,12.523,0,0,0-7.033,2.17,5.8,5.8,0,0,1-5.382.309,5.712,5.712,0,0,0-1.766-.558,2.593,2.593,0,0,0-1.7.439,10.623,10.623,0,0,0-1.735,2.165,5.818,5.818,0,0,1-5.674,2.511c-.621-.037-1.24-.124-1.983-.2-3.682-.963-7.316-.072-10.885,1.132a6.743,6.743,0,0,0-4.13,3.572c-.524,1.125-.736,2.667-1.611,3.307-3.239,2.369-6.4,4.951-10.607,5.6-3.383.521-6.752,1.193-10.081,1.99a41.451,41.451,0,0,0-12.01,4.959.877.877,0,0,0-.313.78C2099.608,98.611,2099.932,99.279,2100.377,99.42Z" fill="#d9e021"/><path d="M536.267,98.046c4.1.108,8.3-.007,12.46-.023.02-.078.037-.155.055-.233,3.273-.171,6.559-.4,9.817-.493a22.225,22.225,0,0,0,7.924-1.556,71.442,71.442,0,0,1,19.42-4.787c3.259-.364,6.529-.694,9.783-1.088s6.52-.773,9.715-1.3A29.722,29.722,0,0,0,615.972,84.8c1.491-.885,1.483-2.357-.183-2.919a18.254,18.254,0,0,0-2.178-.659,39.569,39.569,0,0,0-14.895.019c-1.806.318-3.525.822-5.253,1.271a61.788,61.788,0,0,1-17.806,1.943c-7.273-.219-14.851.105-22.321.488-6.888.354-12.382,2.584-17.842,4.638a4.612,4.612,0,0,0-1.689,1.135,27.53,27.53,0,0,0-2.729,3.163C529.554,96.082,531.759,97.927,536.267,98.046Z" fill="#d9e021"/><path d="M1297.812,82.268c.531.265,1.189.7,1.669.575,3.319-.845,6.609-1.807,9.9-2.749,7.2-2.058,14.337-4.191,22.03-2.3a11.3,11.3,0,0,0,9.736-2.355c2.865-2.25,6.085-2.934,9.6-3.111a48.914,48.914,0,0,0,13.707-2.541c.237-.083.572-.523.519-.687-.174-.546-.379-1.281-.8-1.5a13.056,13.056,0,0,0-2.669-.786,24.347,24.347,0,0,0-3.724.412c-5.2,1.375-10.507,1.35-15.819,1.352-3.435,0-6.871.012-10.3.108a25.717,25.717,0,0,0-5.583.5c-5.44,1.384-10.825,2.982-16.385,3.853q-5.108,3.274-10.216,6.547c-.263.168-.541.311-.8.479C1297.62,80.731,1297.149,81.938,1297.812,82.268Z" fill="#d9e021"/><path d="M3714.693,91.681a61.957,61.957,0,0,0,8.355,0,25.73,25.73,0,0,1,9.235.442,8.664,8.664,0,0,0,6.32-.93,20.585,20.585,0,0,1,8.015-2.24c5.009-.505,9.647-2.371,14.21-4.347a5.768,5.768,0,0,0,2.5-2.588,3.554,3.554,0,0,0-.362-2.56,1.742,1.742,0,0,0-1.509-.776c-3.723,1.384-7.934,1.521-11.081,4.447a6.544,6.544,0,0,1-3.327,1.558c-4.584.671-9.124,2.027-12.865,1.386-7.765-1.526-13.858.645-19.784,3.586a1.017,1.017,0,0,0-.42,1.534A1.065,1.065,0,0,0,3714.693,91.681Z" fill="#d9e021"/><path d="M1219.9,88.591c4.589,1.307,9.3.358,13.189.692,4.487,0,8.227.044,11.966-.021a25.244,25.244,0,0,0,4.631-.492,8.431,8.431,0,0,0,2.467-1.222c.941-.568.79-2.638-.118-3.238a14.193,14.193,0,0,0-6.107-2.178,35.17,35.17,0,0,0-12.1.218c-4.557,1-9.042,2.339-13.553,3.549a1.922,1.922,0,0,0-.769.49,1.591,1.591,0,0,0-.5.74A1.184,1.184,0,0,0,1219.9,88.591Z" fill="#d9e021"/><path d="M3052.4,58.324a69.228,69.228,0,0,1,7.159-1.974c1.8-.474,3.655-.783,5.388-1.429a4.392,4.392,0,0,0,1.888-1.892c.495-.83-.208-2.537-1.078-3.353a8.7,8.7,0,0,0-4.207-1.8,12.368,12.368,0,0,1-6.78,2.634,41.869,41.869,0,0,0-11.7,2.971,1.009,1.009,0,0,0-.4,1.608C3045.182,58.322,3048.181,59.94,3052.4,58.324Z" fill="#d9e021"/><path d="M3061.531,47.873l.021.005c.021-.017.043-.031.064-.048Z" fill="#d9e021"/><path d="M1244.842,78.418a4.393,4.393,0,0,0,2.49-3.587c.079-1.111-1.623-2.25-3.48-2.375-.913-.061-1.828-.11-3.777-.225-1.1.183-3.19.511-5.274.888a1.813,1.813,0,0,0-.9,2.29C1236.251,79.568,1240.6,80.786,1244.842,78.418Z" fill="#d9e021"/><path d="M1184.028,94.215c2.352,1.091,4.856.478,7.291.479,1.85,0,3.7.03,5.549-.017a4.363,4.363,0,0,0,1.794-.382,3.56,3.56,0,0,0,1.265-1.18c.369-.54-.583-1.755-1.483-1.955a10.285,10.285,0,0,0-2.7-.533c-3.688.219-7.368.564-11.048.892a1.573,1.573,0,0,0-.781.428,1.925,1.925,0,0,0-.531.711A1.112,1.112,0,0,0,1184.028,94.215Z" fill="#d9e021"/><path d="M642.812,82.829c4.044-.2,8.091-.37,12.124-.709a13.232,13.232,0,0,0,3.531-1.094.986.986,0,0,0,.58-1.453c-.124-.236-.483-.348-1.051-.728a36.583,36.583,0,0,0-4.326.218c-3.689.579-7.359,1.28-11.026,1.991a.83.83,0,0,0-.6,1.355A1.025,1.025,0,0,0,642.812,82.829Z" fill="#d9e021"/><path d="M1295.106,97.962a5.186,5.186,0,0,0,6.34-2.329,2.636,2.636,0,0,0,.429-1.709c-.082-.438-.7-.774-1.263-1.342-2.069,1.1-4.211,2.215-6.328,3.382a.84.84,0,0,0-.283.762C1294.3,97.2,1294.649,97.831,1295.106,97.962Z" fill="#d9e021"/><path d="M3045.2,98.008c-.877.236-1.582,1.416-1.218,2.118a2.73,2.73,0,0,0,1.159,1.26,3.389,3.389,0,0,0,4.1-.818,1.61,1.61,0,0,0,.023-1.576,9.383,9.383,0,0,0-2.022-1.3A19.758,19.758,0,0,0,3045.2,98.008Z" fill="#d9e021"/><path d="M3297.143,76.352c.179-.214.343-.747.249-.83-.422-.372-.94-.887-1.426-.891-1.619-.012-2.489.6-2.651,1.89-.055.431.51.941.793,1.415C3295.316,78.092,3295.943,77.785,3297.143,76.352Z" fill="#d9e021"/><path d="M1285.914,86.5a6.314,6.314,0,0,0,1.274-1.706,1.39,1.39,0,0,0-1.532-1.69,1.96,1.96,0,0,0-1.735,1.725C1283.764,85.74,1284.6,86.6,1285.914,86.5Z" fill="#d9e021"/><path d="M1207.971,93.529c1.219.569,2.363.075,3.493-.362.7-.273.964-.764.649-1.33a1.152,1.152,0,0,0-.749-.422,4.18,4.18,0,0,0-3.443.661c-.205.157-.267.5-.395.755C1207.671,93.07,1207.759,93.43,1207.971,93.529Z" fill="#d9e021"/><path d="M84.954,60.234c-.309-.131-.658-.149-.916-.422-.375-.4-.046-1.58.538-1.948.156-.1.359-.245.488-.153.283.2.688.47.751.852a3.077,3.077,0,0,1-.4,1.367C85.329,60.12,85.111,60.137,84.954,60.234Z" fill="#d9e021"/><path d="M29.313,82.512a5.107,5.107,0,0,0,1.705-.454.98.98,0,0,0,.471-.7c.069-.673-.327-1.058-1.039-1.14a14.176,14.176,0,0,0-1.693.534,1.012,1.012,0,0,0-.506.685A.921.921,0,0,0,29.313,82.512Z" fill="#d9e021"/><path d="M1356.112,82.588a1.205,1.205,0,0,0-.661.514c-.3.637-.031,1.066.684,1.228.7.025,1.174-.3,1.179-.978C1357.319,82.62,1356.834,82.335,1356.112,82.588Z" fill="#d9e021"/><path d="M3203.46,50.014c-.064-.254-.053-.614-.216-.73-.136-.1-.475.09-.724.152q.095.373.19.746Z" fill="#d9e021"/><path d="M3221.311,56.315a.794.794,0,0,0-.019-.728c-.45-.424-.982-.32-1.386.266a14.939,14.939,0,0,0-.793,1.417,16.2,16.2,0,0,0,1.567-.419A1.232,1.232,0,0,0,3221.311,56.315Z" fill="#d9e021"/><path d="M3219.113,57.27l-.079.018.042.053C3219.088,57.317,3219.1,57.293,3219.113,57.27Z" fill="#d9e021"/><path d="M3162.413,57.794c1.171.281,2.366.46,3.552.677-1.018-.617-2.024-1.256-3.066-1.83a1.022,1.022,0,0,0-.894.015C3161.387,57.088,3161.54,57.585,3162.413,57.794Z" fill="#d9e021"/><path d="M3166.056,58.488l-.091-.017.066.041Z" fill="#d9e021"/><path d="M1366.881,81.438c.844.129,1.255-.2,1.045-.883-.054-.174-.517-.222-.792-.327-.853-.1-1.26.214-1.044.888C1366.147,81.293,1366.6,81.394,1366.881,81.438Z" fill="#d9e021"/></svg>